<?xml version="1.0" encoding="UTF-8"?><svg id="Layer_1" xmlns="http://www.w3.org/2000/svg" viewBox="0 0 400.28 512"><defs><style>.cls-1{fill:#ce0d0d;}</style></defs><path class="cls-1" d="M382.01,233.08c-10.58-10.67-21.98-20.47-32.91-30.78-13.64-12.86-27.35-25.65-40.46-39.06-41.91-42.91-71.08-95.44-100.55-146.85-2.13-3.71-4.73-10.15-7.95-16.4-3.21,6.24-5.83,12.69-7.95,16.4-29.46,51.41-58.63,103.95-100.55,146.85-13.1,13.41-26.82,26.2-40.45,39.06-10.93,10.31-22.33,20.11-32.92,30.78-5.27,5.31-23.73,18.43-16.68,27.56,4.52,5.85,9.98,11.5,15.17,16.84,10.98,11.25,23,21.43,34.43,32.21,13.63,12.86,27.35,25.65,40.45,39.06,41.92,42.91,71.09,95.44,100.55,146.85,2.12,3.71,4.74,10.15,7.95,16.4,3.22-6.24,5.82-12.69,7.95-16.4,29.46-51.41,58.63-103.94,100.55-146.85,13.1-13.41,26.82-26.2,40.46-39.06,11.43-10.78,23.45-20.95,34.42-32.21,5.2-5.34,10.66-10.99,15.18-16.84,7.05-9.13-11.4-22.25-16.68-27.56Zm-3.31,8.61c.35,.3,.7,.6,1.05,.9,.19,.2,.38,.43,.55,.69,2.38,3.46,1.47,8.59,.11,12.39-3.83,1.5-7.68,2.92-11.48,4.41-11.13,4.38-22.16,9.05-32.67,14.79-3.33,1.83-6.62,3.76-9.81,5.82,.18-.5,.35-1,.53-1.52,2.76-3.05,6.13-5.66,9.15-8.42,5.22-4.76,10.09-9.89,15.21-14.75,5.07-4.82,10.42-9.42,16.48-12.95,3.09-1.8,7.73-3.42,10.87-1.37Zm-14.32-12.23s0,0,0,.02c.39,.36,.78,.71,1.18,1.07,.6,.72,1.04,1.63,1.28,2.69,.5,2.26,.16,4.68-.48,6.89-.88,.49-1.74,1.01-2.6,1.55-2.93,1.85-5.69,3.99-8.34,6.23-5.47,4.6-10.47,9.74-15.57,14.75-2.94,2.9-5.97,5.69-9.06,8.43,1.65-2.83,3.37-5.62,4.94-8.5,3.64-6.66,6.9-13.55,10.84-20.05,1.93-3.19,4.02-6.35,6.41-9.22,1.62-1.95,3.67-3.57,6.09-4.4,1.96-.69,3.85-.43,5.3,.54Zm-14.43-12.03c2.51,.97,3.95,3.35,4.67,5.84,.39,1.34,.42,2.9-.06,4.22-2.27,1.47-4.07,3.6-5.7,5.75-2.31,3.07-4.37,6.32-6.29,9.62-3.66,6.3-6.82,12.86-10.32,19.24,.3-1.24,.59-2.47,.85-3.72,1.6-7.64,2.79-15.37,4.75-22.93,.88-3.38,1.98-6.71,3.26-9.97,.89-2.28,1.95-4.52,3.54-6.4,1.4-1.65,3.22-2.45,5.3-1.65Zm-17.29-16.97s-.08,0-.13,0c0-.13,0-.26-.02-.39,.07,.11,.11,.25,.15,.38Zm-3.26,4.77c3.03-2.28,6.94-1.99,9.74,.48,2.77,2.45,3.42,6.55,3.09,10.04-.03,.35,.03,.65,.16,.91-1.02,1.12-1.84,2.43-2.57,3.74-1.31,2.34-2.2,4.89-3.08,7.41-1.29,3.7-2.29,7.51-3.17,11.33-1.73,7.59-2.87,15.3-4.64,22.88-.95,4.1-2.25,8.11-3.64,12.09-.43,.74-.87,1.47-1.31,2.2,.09-.17,.15-.38,.17-.63,.05-.55,.09-1.12,.14-1.68,.55-2.86,1.1-5.77,1.06-8.67,.03-.2,.04-.39,.07-.58,.17-.26,.25-.58,.25-.94,0-.39-.01-.79-.03-1.18,.01-.1,.02-.2,.03-.3,.02-.25,0-.49-.08-.69-.41-6.86-2.43-13.52-3.26-20.35-.85-6.84-.97-13.81,.09-20.64,.82-5.36,2.41-12,6.98-15.42Zm-6.66-13.42c3.3,2.42,4.84,6.57,4.98,10.55-3.92,2.7-5.99,7.5-7.28,11.96-1.75,6.08-2.2,12.47-2.03,18.78-.22-.45-.45-.89-.68-1.33,.01-.24-.04-.5-.17-.78-3-6.24-5.78-12.67-6.75-19.58-.5-3.54-.4-7.1,.23-10.62,.51-2.88,1.42-5.81,3.26-8.13,2.24-2.81,5.65-2.88,8.44-.85Zm-237.56,68.55c2.68,8.72,7.56,16.23,14.79,21.84,.21,.16,.42,.21,.62,.18,.25,1.02,.54,2.05,.87,3.07,1.48,4.52,3.65,8.81,6.55,12.55-5.91-4.1-11.47-8.69-16.2-14.1-6.5-7.43-10.95-16.13-12.62-25.7,.33-6.95,1.47-14.07,4.1-20.53-.13,2.95-.3,5.9-.29,8.85,.03,4.73,.79,9.31,2.18,13.84Zm39.55-96.05c1.4-4.54,3.75-8.77,5.81-13.06,1.54,3.67,2.39,7.75,3.28,11.57,.15,.61,.29,1.22,.42,1.83-2.08,5.5-5.48,10.62-6.43,16.41-.38-1-.77-2-1.15-3-.91-2.39-1.91-4.72-3.2-6.93,.82-1.03,1.35-2.27,1.52-3.59,.05-.36,.06-.72,.05-1.08,0-.74-.1-1.47-.31-2.16Zm25.98-33.65c1.52-1.17,2.52-2.92,2.76-4.82,.24-1.9-.29-3.84-1.46-5.35-.47-.61-1.12-1.22-1.87-1.72,.88-5.14,3.63-9.65,5.93-14.29,.78,2.32,1.5,4.68,1.86,7.11,.45,3.07,.77,6.2,1.07,9.3,.24,2.56,.44,5.13,.56,7.7-1.88,2.02-4.28,3.51-5.98,5.73-1.26,1.63-2.41,3.35-3.41,5.15-.12-.74-.25-1.46-.38-2.2-.32-1.85-.62-3.71-1.05-5.54,.67-.22,1.33-.55,1.98-1.06Zm-4.43-1.11c-2.38,0-4.37-1.98-4.37-4.36s1.99-4.37,4.37-4.37,4.37,1.99,4.37,4.37-1.99,4.36-4.37,4.36Zm42.33-64.35c.25,0,.44-.09,.56-.22,1.36-.03,2.56-.18,3.73-.79,.35,1.11,.88,2.16,1.36,3.23,.83,1.82,1.32,3.72,1.75,5.67,.85,3.97,1.48,8,2.55,11.93-.08,.32-.16,.65-.25,.97-4.2-1.75-8.5-4.08-13.01-3.44-1.21-3.74-2.78-7.31-4.64-10.84-.87-1.65-1.84-3.35-2.73-5.08,3.46-1.11,7.05-1.4,10.69-1.42Zm-2.45-3.55c-.81-.82-1.27-1.94-1.27-3.09v-.25c0-1.15,.46-2.27,1.27-3.09,.82-.81,1.94-1.28,3.1-1.28s2.27,.47,3.08,1.28c.82,.82,1.28,1.94,1.28,3.09v.25c0,1.15-.46,2.27-1.28,3.09-.81,.81-1.93,1.28-3.08,1.28s-2.27-.47-3.1-1.28Zm10.44-5.32c.91-1.99,2.13-3.73,3.54-5.31,1.41,1.58,2.63,3.33,3.54,5.31-.16,.77-.2,1.58-.09,2.37,.21,1.68,1.02,3.25,2.26,4.4-.33,1.39-1.05,2.7-1.64,3.99-.76,1.69-1.18,3.49-1.59,5.29-.68,2.96-1.16,5.96-1.8,8.93-.23-.97-.45-1.93-.67-2.89-.23,.96-.45,1.93-.67,2.89-.65-2.97-1.13-5.97-1.8-8.93-.41-1.8-.83-3.6-1.59-5.29-.58-1.29-1.32-2.6-1.64-3.99,1.24-1.15,2.05-2.72,2.26-4.4,.1-.8,.06-1.6-.1-2.37Zm10.78,7.86c1.17,.6,2.37,.76,3.73,.79,.12,.13,.3,.22,.56,.22,3.63,.02,7.22,.3,10.68,1.42-.89,1.74-1.85,3.44-2.73,5.08-1.87,3.53-3.43,7.1-4.64,10.84-4.52-.64-8.81,1.69-13.01,3.44-.08-.32-.17-.65-.25-.97,1.07-3.93,1.69-7.95,2.55-11.93,.42-1.96,.92-3.85,1.74-5.67,.48-1.06,1-2.12,1.37-3.23Zm-.72-5.63v-.25c0-1.15,.46-2.27,1.28-3.09,.81-.81,1.93-1.28,3.09-1.28s2.27,.47,3.09,1.28c.82,.82,1.28,1.94,1.28,3.09v.25c0,1.15-.46,2.27-1.28,3.09-.81,.81-1.93,1.28-3.09,1.28s-2.27-.47-3.09-1.28-1.28-1.94-1.28-3.09Zm41.62,61.93c-1.18,1.51-1.71,3.45-1.47,5.35,.24,1.9,1.24,3.65,2.75,4.82,.65,.51,1.31,.84,1.98,1.06-.42,1.83-.73,3.7-1.05,5.54-.13,.74-.26,1.46-.39,2.2-.99-1.8-2.14-3.51-3.4-5.15-1.71-2.22-4.1-3.71-5.98-5.73,.12-2.57,.32-5.14,.56-7.7,.3-3.1,.62-6.22,1.07-9.3,.35-2.43,1.08-4.79,1.86-7.11,2.31,4.65,5.04,9.15,5.93,14.29-.74,.5-1.4,1.11-1.87,1.72Zm5.73,.33c2.38,0,4.38,1.99,4.38,4.37s-1.99,4.36-4.38,4.36-4.37-1.98-4.37-4.36,1.98-4.37,4.37-4.37Zm21.29,46.73c.17,1.32,.7,2.56,1.51,3.59-1.28,2.21-2.29,4.54-3.19,6.93-.38,1-.77,2-1.15,3-.93-5.79-4.34-10.91-6.43-16.41,.14-.61,.28-1.22,.42-1.83,.89-3.82,1.74-7.9,3.28-11.57,2.06,4.29,4.41,8.52,5.81,13.06-.21,.69-.32,1.42-.31,2.16-.01,.36,0,.72,.05,1.08Zm41.7,70.13c2.62,6.46,3.77,13.58,4.1,20.53-1.68,9.58-6.12,18.27-12.63,25.7-4.72,5.41-10.28,10-16.19,14.1,2.89-3.75,5.07-8.04,6.55-12.55,.33-1.03,.62-2.05,.87-3.07,.2,.03,.41-.02,.61-.18,7.23-5.61,12.11-13.12,14.79-21.84,1.4-4.53,2.15-9.11,2.18-13.84,.01-2.95-.18-5.9-.29-8.85Zm-116.85,53.83c-.71,.5-1.57,.8-2.49,.8-2.38,0-4.37-2-4.37-4.37s1.99-4.38,4.37-4.38c.92,0,1.78,.3,2.49,.81,.71-.51,1.57-.81,2.5-.81,2.38,0,4.37,1.99,4.37,4.38s-1.99,4.37-4.37,4.37c-.92,0-1.78-.3-2.5-.8Zm.65,3.9c-.26,2.06-.47,4.14-.65,6.22-.17-2.08-.38-4.16-.64-6.22,.21-.05,.42-.11,.64-.18,.21,.07,.42,.13,.65,.18Zm-71.46-94.62c-5.22-2.23-10.73-3.9-16.35-4.64-1.04-3.79-2.35-7.51-3.99-11.08-.63-1.38-1.31-2.75-2.03-4.1,4.12,.48,8.18,2.25,11.73,4.19,3.67,2,7.25,4.43,10.21,7.41,.1,1.15,.13,2.31,.11,3.49-.02,1.59-.03,3.2,.31,4.74Zm5.54-33.03c.19,1.1,.34,2.2,.42,3.33,.14,2.03,.27,4.11,.85,6.07-2.48,4.38-4.54,9.06-5.57,13.9-.21-1.64-.55-3.26-.99-4.85-.1-.34-.19-.68-.3-1.01,.06-.13,.09-.28,.08-.45-.32-6.15,3.03-11.5,5.52-17Zm6.68,41.47c3.86,1.94,7.24,4.78,9.66,8.39-3.18-.59-6.47-.71-9.25-2.56-.59-1.55-1.4-2.98-2.49-4.1,.78-.42,1.49-.98,2.07-1.73Zm-1.4-4.12c.14-.06,.26-.13,.38-.21,0,.12,0,.24,.01,.35-.13-.05-.25-.1-.39-.15Zm3.67,0c.97,.53,2.02,.95,3.02,1.25,.09,.82,.2,1.64,.34,2.45-1.03-.74-2.1-1.4-3.2-2-.08-.57-.12-1.14-.16-1.71Zm26.78,10.12c4.12-3.56,9.35-5.28,14.72-5.8,4.8-.46,10.13-.29,14.81,1.33,4.67-1.62,10.01-1.79,14.81-1.33,5.37,.52,10.6,2.24,14.72,5.8,4.57,3.95,6.95,10.25,7.97,16.05,1.13,6.48,.3,13.1-1.25,19.43-1.02,.87-1.98,1.82-2.78,2.91-.04-.01-.07-.03-.1-.04,1.77-5.57,1.69-11.57,.51-17.25-1.11-5.37-3.25-10.52-7.18-14.42-3.49-3.46-8.2-5.34-12.95-6.25-2.98-.57-5.95-.67-8.93-.05-1.66,.33-3.26,.87-4.81,1.53-1.55-.66-3.15-1.2-4.81-1.53-2.98-.61-5.94-.52-8.92,.05-4.76,.92-9.47,2.8-12.96,6.25-3.93,3.9-6.08,9.05-7.18,14.42-1.18,5.68-1.25,11.68,.52,17.25-.04,0-.08,.03-.1,.04-.81-1.09-1.76-2.04-2.78-2.91-1.55-6.33-2.38-12.95-1.25-19.43,1.01-5.8,3.39-12.1,7.96-16.05Zm-7.7-85.01c-.03-.8-.06-1.62-.1-2.43,2.29,.18,4.7,1.59,6.51,2.78,1.15,.75,2.42,1.62,3.5,2.63-2.51,2.85-5.1,5.64-7.67,8.42-1.24,1.34-2.49,2.67-3.74,4,.48-2.25,1.15-4.5,1.42-6.79,.33-2.82,.19-5.77,.1-8.61Zm7.58,19.12c-.02,.08-.04,.15-.05,.23-.04-.02-.08-.04-.12-.06,.06-.05,.12-.11,.17-.17Zm-.69,11.38c-.14-.17-.29-.33-.42-.5,.14,.15,.27,.29,.41,.44,0,.02,.01,.04,.02,.06Zm-7.22-2.4c2.63,1.69,4.75,4.52,6.58,6.84,3,3.8,5.68,7.75,7.85,12.1,2.32,4.67,4.4,9.45,5.43,14.59,.95,4.74,1.4,9.57,2.07,14.35-.42,.05-.85,.11-1.26,.17-.44-13.23-8.03-25.15-15.75-35.43-.62-.82-1.87-.04-1.52,.89,.14,.38,.22,.75,.29,1.18,.54,3.28,.46,6.68,.5,10,.05,4.41,.05,8.83,.27,13.24,.18,3.73,.4,7.62,1.5,11.22,.4,1.3,1,2.72,1.99,3.63-.19,.13-.38,.27-.57,.41-3.06-8.13-7.11-16.09-8.08-24.81-1.04-9.42,.26-18.95,.71-28.38Zm13.13-44.83c-.01-.25-.03-.5-.03-.75,1.44-3.34,2.3-6.96,4.77-9.75,1.45-1.63,3.16-3.04,4.7-4.6,.33,2.72,.74,5.51,.8,8.25,.05,2.31-.26,4.62-.34,6.92-.04,1-.09,2.08,0,3.13-2.98,4.64-6.36,9-9.93,13.21,.08-5.47,.24-10.95,.04-16.42Zm48.9,16.42c-3.56-4.21-6.94-8.57-9.92-13.21,.08-1.05,.03-2.13,0-3.13-.08-2.3-.39-4.61-.34-6.92,.05-2.74,.46-5.53,.8-8.25,1.53,1.56,3.25,2.97,4.7,4.6,2.47,2.79,3.33,6.41,4.77,9.75-.01,.25-.02,.5-.04,.75-.19,5.47-.03,10.95,.04,16.42Zm12.85,8.93c.27,2.29,.95,4.54,1.43,6.79-1.25-1.33-2.49-2.66-3.74-4-2.58-2.78-5.16-5.57-7.68-8.42,1.08-1.01,2.35-1.88,3.5-2.63,1.81-1.18,4.22-2.6,6.5-2.78-.04,.81-.07,1.62-.1,2.43-.09,2.85-.23,5.79,.09,8.61Zm-6.55,21.38c-.15,.17-.29,.33-.43,.5,0-.02,.01-.04,.02-.06,.14-.15,.27-.3,.41-.44Zm-.95-10.71s-.08,.04-.12,.06c-.03-.08-.04-.15-.06-.23,.06,.06,.12,.11,.17,.17Zm1.16,15.65c1.83-2.33,3.95-5.15,6.59-6.84,.44,9.43,1.75,18.96,.7,28.38-.97,8.72-5.02,16.68-8.08,24.81-.19-.14-.38-.28-.57-.41,.99-.91,1.59-2.33,2-3.63,1.1-3.6,1.31-7.49,1.5-11.22,.22-4.41,.22-8.83,.26-13.24,.04-3.32-.03-6.72,.51-10,.07-.43,.14-.8,.28-1.18,.35-.93-.9-1.71-1.53-.89-7.72,10.27-15.32,22.19-15.75,35.43-.43-.06-.84-.11-1.27-.17,.68-4.79,1.13-9.61,2.08-14.35,1.03-5.14,3.11-9.92,5.43-14.59,2.16-4.35,4.84-8.29,7.84-12.1Zm-2.92,44.93c-2.88-1.7-6.11-2.78-9.4-3.42,.36-11.66,6.4-22.22,13.12-31.55-.1,1.46-.07,2.93-.1,4.3-.1,4.29-.08,8.59-.18,12.88-.11,4.09-.27,8.24-1.01,12.28-.28,1.53-.82,4.7-2.42,5.51Zm-14.63-122.4c-1.36,5.88-2.02,11.97-2.48,17.98-.13,1.71,0,3.44,.12,5.15-3.91-7.28-6.61-15.1-8.77-23.09,3.88-1.64,7.87-3.85,12.02-3.43-.32,1.12-.62,2.24-.89,3.39Zm-5.36,53.89c2.4,7.8,5.2,15.65,6.09,23.8,.87,7.96,.03,16-.76,23.94-.55,5.52-1.08,11.06-1.1,16.62-.92-.04-1.85-.06-2.78-.04,.78-7.68,1.1-15.4,1.16-23.13,.03-3.75-.01-7.51-.09-11.27-.08-3.77-.18-7.47-.93-11.18-1.42-6.98-4.62-13.45-7.08-20.1-.87-2.37-1.73-4.74-2.57-7.11-.85,2.37-1.7,4.75-2.58,7.11-2.46,6.65-5.65,13.12-7.07,20.1-.76,3.71-.87,7.41-.93,11.18-.08,3.76-.12,7.52-.09,11.27,.05,7.73,.38,15.44,1.15,23.13-.93-.02-1.86,0-2.77,.04-.03-5.56-.55-11.1-1.1-16.62-.79-7.94-1.63-15.97-.76-23.94,.88-8.15,3.7-16,6.09-23.8,2.84-9.24,5.55-18.5,8.07-27.83,2.52,9.32,5.23,18.58,8.07,27.83Zm.85,40.96c-.05,7.82-.38,15.64-1.18,23.42-2.63,.16-5.26,.57-7.73,1.32-2.47-.75-5.1-1.15-7.73-1.32-.8-7.78-1.14-15.6-1.18-23.42-.03-3.94,.02-7.88,.11-11.82,.08-3.58,.22-7.1,1-10.61,1.57-6.97,4.77-13.46,7.21-20.14,.2-.54,.4-1.08,.59-1.62,.2,.54,.4,1.08,.59,1.62,2.45,6.68,5.64,13.17,7.21,20.14,.79,3.51,.93,7.04,1,10.61,.09,3.94,.13,7.88,.11,11.82Zm-19.99-71.72c.13-1.72,.25-3.45,.12-5.15-.45-6.01-1.12-12.1-2.48-17.98-.26-1.15-.56-2.27-.88-3.39,4.14-.41,8.13,1.8,12.02,3.43-2.16,7.99-4.88,15.81-8.78,23.09Zm-7.58,95.85c-3.29,.64-6.53,1.72-9.4,3.42-1.59-.81-2.14-3.98-2.42-5.51-.74-4.04-.9-8.19-1-12.28-.11-4.29-.08-8.58-.19-12.88-.03-1.36,0-2.83-.11-4.3,6.73,9.33,12.76,19.89,13.13,31.55Zm77.25,2.57c.58,.75,1.3,1.3,2.07,1.73-1.1,1.13-1.9,2.56-2.5,4.1-2.77,1.85-6.06,1.97-9.24,2.56,2.42-3.61,5.8-6.45,9.66-8.39Zm-5.64-.41c.14-.82,.25-1.64,.35-2.45,.98-.3,2.04-.72,3.01-1.25-.04,.57-.09,1.14-.16,1.71-1.1,.59-2.18,1.26-3.2,2Zm6.64-3.56c0-.12,0-.24,.01-.35,.12,.08,.25,.15,.38,.21-.13,.05-.26,.1-.39,.15Zm11.27-20.05c-.1,.33-.2,.67-.3,1.01-.45,1.59-.79,3.22-1,4.85-1.04-4.84-3.09-9.52-5.57-13.9,.58-1.96,.71-4.04,.85-6.07,.08-1.13,.23-2.24,.42-3.33,2.49,5.49,5.84,10.85,5.51,17,0,.17,.03,.32,.09,.45Zm.25,10.85c-.02-1.18,.03-2.34,.12-3.49,2.96-2.99,6.55-5.41,10.21-7.41,3.56-1.94,7.62-3.71,11.74-4.19-.72,1.35-1.4,2.72-2.04,4.1-1.64,3.58-2.95,7.29-3.99,11.08-5.61,.74-11.13,2.41-16.35,4.64,.34-1.54,.33-3.15,.31-4.74Zm-69.4,78.59c-.57,.17-1.15,.37-1.72,.57-.56-.2-1.14-.39-1.72-.57,.62-5.5-.9-11.12-.4-16.6,.72,.33,1.43,.7,2.12,1.09,.69-.39,1.4-.77,2.12-1.09,.5,5.48-1.02,11.09-.4,16.6Zm-2.48-21.63c.28-.14,.54-.32,.76-.55,.22,.23,.47,.41,.76,.55-.25,.11-.51,.23-.76,.34-.25-.12-.51-.23-.76-.34Zm2.32-8.55c-.52,.04-1.04,.13-1.55,.24-.51-.11-1.03-.2-1.55-.24-2.01-.17-4.46,.13-6.11,1.47-.84,.44-1.59,1.03-2.16,1.82-.52,.73-1.16,1.74-1.36,2.74-.82-.08-1.65-.13-2.47-.15-.85-4.48,3.08-8.14,6.79-9.88,2-.95,4.5-1.71,6.86-1.65,2.36-.06,4.85,.69,6.87,1.65,3.7,1.75,7.63,5.4,6.79,9.88-.83,.02-1.65,.07-2.48,.15-.2-1-.83-2-1.36-2.74-.56-.79-1.31-1.38-2.15-1.82-1.66-1.34-4.11-1.64-6.12-1.47Zm-86.21-35.55c1.95-.67,3.93-1.22,5.93-1.64,1.6-.33,3.23-.57,4.86-.72-1.87,2.93-4.95,4.98-8.28,5.96-.06-.05-.13-.08-.2-.12-.89-.51-2.13-1.15-3.29-1.25,.36-.74,.68-1.48,.98-2.24Zm-2.02-10.9c5.8,.85,11.47,2.71,16.8,5.13,.02,.01,.03,.02,.05,.04-2.72-.12-5.47,.08-8.2,.59-2.48,.47-4.94,1.12-7.34,1.94-.19-2.6-.68-5.17-1.31-7.7Zm12.54,11.75c2.26,1.45,4.18,3.25,5.88,5.29-3.45-.77-7.03-.88-10.53-.23-.5-.35-.99-.71-1.49-1.05,2.3-.87,4.43-2.24,6.13-4Zm1.14,9.67c1.55,.1,3.1,.36,4.61,.77,.48,4.05,2.55,8.02,4.77,11.34,2.13,3.2,4.83,6.44,8.28,8.31-.44,.39-.95,.76-1.57,1.12-1.06,.63-2.57,1.27-3.83,1.55-.6,.14-1.22,.25-1.85,.27,.22,0-1.19-.19-.75-.05-.22-.07-.43-.15-.65-.23-.02-.02-.3-.2-.35-.25-.06-.04-.09-.07-.12-.09,0,0,0-.01-.01-.02-.11-.13-.21-.25-.31-.4-.05-.1-.15-.25-.17-.3-.09-.2-.18-.42-.25-.64-.03-.08-.05-.14-.06-.17,0-.04-.01-.08-.02-.12-.05-.25-.1-.49-.12-.75-.23-2.02,.26-4.33,1.08-6.44,.64-1.66-.43-2.97-1.75-3.35-.15-.21-.33-.4-.55-.58-1.22-1.04-2.96-1.2-4.5-1.12-3.93,.2-7.65,2.05-10.08,5.17-2.73,3.49-3.57,8.18-1.98,12.35,1.67,4.38,5.55,8.23,9.73,10.28,9.46,4.67,19.94-.7,25.8-8.54,2.47,3.39,6.56,5.13,9.35,8.19-3.64,1.86-7.01,4.25-9.94,7.18-2.27,2.29-4.35,4.72-6.24,7.33-1.05,1.46-2.11,2.93-3.23,4.35-.98,0-1.95-.05-2.92-.2-10.03-1.44-17.86-9.57-23.08-17.72-2.85-4.45-5.18-9.26-6.83-14.28-1.31-3.97-2.29-8.19-2.35-12.4,4.67-6.4,11.73-11.08,19.89-10.59Zm2.54,21.02c.11,.86,.31,1.7,.63,2.51,.22,.57,.5,1.1,.82,1.56-2.94,.95-5.71,2.84-7.85,4.97-.68-.7-1.3-1.47-1.86-2.27-2.98-4.26-2.42-9.8,1.47-13.13,2.71,1.55,4.92,3.83,6.78,6.36Zm-5.19-7.49c1.52-.89,3.15-1.35,4.96-1.4,.5,0,1.1,.03,1.54,.17-.68,1.79-1.21,3.79-1.37,5.79-1.5-1.76-3.2-3.33-5.13-4.56Zm4.86,14.34c.99-.5,2.05-.96,3.14-1.28,1.83,1.56,4.35,2.18,6.93,1.68,.81-.15,1.63-.36,2.45-.63-.33,.49-.65,1-.94,1.51-.95,1.7-1.22,3.78-2.4,5.33-1.19,.35-2.41,.58-3.66,.63-3.85,.17-7.43-1.37-10.27-3.83,1.4-1.37,3.05-2.55,4.76-3.42Zm13.02,2.31c.73-1.29,1.59-2.48,2.38-3.7,1.43-.72,2.75-1.63,3.86-2.72,.1,1.13,.24,2.27,.42,3.41-.43,.52-.88,1.02-1.35,1.51-1.89,1.95-4.15,3.68-6.66,4.85,.43-1.12,.75-2.29,1.34-3.35Zm5.46-25.62c-.06,.3-.12,.61-.17,.9-.26-.33-.53-.65-.81-.97-1.09-1.25-2.29-2.38-3.57-3.4-.13-1-.33-2.02-.58-3.06,1.64,.71,3.37,1.03,5.12,1.32,.77,1.61,.31,3.55,0,5.21Zm-2.16,7.29c.52,1.17,.8,1.89,.96,2.94,.15,1.05,.2,1.43,.05,2.26-3.74-4.41-7.9-8.87-9.98-14.29,1.89,1.02,3.64,2.3,5.18,3.81,1.38,1.35,2.98,3.5,3.78,5.27Zm-10.89-15.42h0c-.83-1.14-1.71-2.22-2.65-3.24,1.83-.24,3.78-.4,5.53-.93,2.05,1.68,3.06,4.57,3.59,7.33-2.01-1.33-4.2-2.39-6.46-3.17Zm15.06,3.25c.87,.15,1.75,.33,2.6,.58,1.46,2.78,2.27,5.76,2.5,8.77-1.82-1.75-3.61-3.52-5.05-5.62,.2-1.27,.27-2.53-.05-3.73Zm4.24,10.96s-.03,.08-.04,.13c-.29,1.62-1.23,2.86-2.28,4.02-.26-2.54-1.27-5.02-2.63-7.23,.08-.58,.19-1.17,.3-1.76,1.4,1.76,3.02,3.3,4.65,4.85Zm.78,2.87c-.46,4.11-1.95,8.12-4.31,11.62-.13-1.14-.24-2.27-.29-3.42,.68-1.1,1.18-2.33,1.4-3.7,.04-.23,.08-.45,.1-.68,1.1-1.27,2.27-2.42,3.1-3.83Zm85.15,39.9c-.9,1.66-1.89,3.29-3.03,4.8-.42,.55-1.4,1.99-2.21,2.13-.85-.55-1.73-1.07-2.62-1.55,2.19-2.15,3.34-5.28,4.42-8.08,.98-2.53,2.4-5.1,3.18-7.78,.57,.39,1.14,.79,1.69,1.22,.75,.58,1.45,1.18,2.13,1.8-.93,2.58-2.26,5.07-3.56,7.46Zm4.96-6.1c1.4,1.43,2.68,2.95,3.92,4.52-1.15,1.81-2.35,3.59-3.65,5.29-1.77,2.32-3.84,4.76-6.45,6.15-.77-.65-1.57-1.28-2.39-1.85,.42-.33,.81-.72,1.16-1.1,1.3-1.41,2.31-3.11,3.27-4.75,1.52-2.62,3.05-5.4,4.15-8.26Zm-9.92,2.41c-1.07,2.81-2.18,6.23-4.58,8.2-1.08-.52-2.18-1-3.29-1.44,.79-1.18,1.4-2.53,2.02-3.78,1.09-2.21,2.09-4.46,3.03-6.73,.82-1.97,1.61-3.97,2.17-6.03,1.3,.59,2.56,1.25,3.78,1.99-.68,2.69-2.14,5.26-3.12,7.8Zm-21.27-4.11c.92-3.05,1.93-6.43,1.42-9.65,1.59,0,3.19,.11,4.78,.3-.14,.63-.3,1.26-.48,1.88-.5,1.8-.96,3.62-1.43,5.44-.87,3.4-1.8,6.8-2.9,10.13-1.22-.08-2.45-.12-3.68-.08,.51-2.73,1.49-5.4,2.28-8.03Zm-4.11,8.12c-.66,.05-1.32,.13-1.98,.21,.76-5.82,1.6-11.68,1.74-17.55,1.31-.22,2.64-.35,3.97-.41,.57,3.23-.55,6.63-1.49,9.68-.8,2.64-1.76,5.32-2.24,8.07Zm-23.17-8.12c.8,2.63,1.77,5.3,2.29,8.03-1.23-.04-2.46,0-3.68,.08-1.1-3.34-2.03-6.73-2.9-10.13-.46-1.82-.93-3.64-1.44-5.44-.17-.62-.33-1.25-.47-1.88,1.6-.19,3.19-.29,4.79-.3-.52,3.22,.5,6.6,1.41,9.65Zm.38-9.63c1.33,.05,2.66,.19,3.97,.41,.15,5.87,.98,11.73,1.74,17.55-.66-.09-1.32-.16-1.99-.21-.47-2.75-1.43-5.43-2.24-8.07-.93-3.05-2.05-6.45-1.48-9.68Zm33.66,18.48c-1.18-.25-2.35-.44-3.55-.58,1.02-3.16,1.9-6.37,2.73-9.59,.56-2.14,1.13-4.26,1.69-6.39,.13-.45,.2-.93,.27-1.42,1.5,.22,2.98,.5,4.45,.82-.89,5.93-2.87,11.85-5.6,17.17Zm7.34-16.76c1.67,.42,3.29,.93,4.87,1.55-.12,.48-.27,.95-.43,1.42-.65,2-1.45,3.95-2.27,5.88-.82,1.92-1.68,3.81-2.6,5.69-.59,1.2-1.15,2.47-1.95,3.54-.01,.03-.03,.05-.04,.06-.41-.14-.83-.27-1.24-.41-.63-.19-1.26-.38-1.9-.54,2.7-5.32,4.65-11.26,5.56-17.19Zm-5.91-6.35c-.76-.1-1.52-.18-2.28-.24,.28-1.95-.25-4.17-.73-5.84-.98-3.42-2.88-6.37-5.55-8.72-3.79-3.34-8.64-4.3-13.27-3.41-4.63-.89-9.48,.07-13.27,3.41-2.66,2.35-4.56,5.3-5.54,8.72-.48,1.68-1.02,3.9-.73,5.84-.76,.06-1.52,.14-2.28,.24-.02-3.32-.02-6.69,.78-9.91,.9-3.61,3.2-6.2,6.24-8.25,4.55-3.08,9.83-3.23,14.8-1.79,4.97-1.44,10.26-1.29,14.81,1.79,3.02,2.05,5.34,4.64,6.24,8.25,.8,3.22,.8,6.6,.78,9.91Zm-43.37,5.13c.08,.48,.15,.96,.27,1.42,.57,2.13,1.14,4.25,1.69,6.39,.83,3.22,1.71,6.43,2.73,9.59-1.19,.15-2.38,.34-3.55,.58-2.73-5.32-4.7-11.24-5.6-17.17,1.47-.32,2.96-.6,4.46-.82Zm-.64,18.41c-.63,.16-1.27,.35-1.9,.54-.42,.14-.83,.27-1.24,.41-.02-.02-.03-.04-.04-.06-.8-1.07-1.37-2.35-1.95-3.54-.92-1.88-1.79-3.77-2.6-5.69-.83-1.93-1.63-3.87-2.28-5.88-.15-.47-.3-.94-.42-1.42,1.57-.62,3.2-1.13,4.87-1.55,.9,5.93,2.85,11.86,5.55,17.19Zm-1.67,9.77c2.38,0,4.37,1.98,4.37,4.37s-1.99,4.37-4.37,4.37-4.37-1.99-4.37-4.37,1.99-4.37,4.37-4.37Zm5.5,7.05c.42-.74,.76-1.47,.8-2.4,.02-.15,.03-.3,.04-.45,.15,0,.32-.05,.47-.15,.54-.35,1.15-.55,1.78-.65,.33,1.2,.65,2.41,1,3.61,1.03,3.58,2.27,7.1,3.29,10.69,1.1,3.93,2.09,7.91,2.89,11.92,1.57,7.85,2.65,15.8,3.72,23.73-1.45-5.28-3.17-10.48-5.01-15.65-1.72-4.81-3.39-9.63-5.34-14.35-1.92-4.63-3.95-9.28-5.05-14.18-.01-.05-.03-.1-.05-.14,.61-.56,1.1-1.22,1.45-1.98Zm2.89-40.82c-.35,.01-.7,.02-1.05,.03-.42,.01-.83,.04-1.25,.05-.41-1.93,.35-4.4,.9-5.98,1-2.82,2.6-5.37,4.95-7.27,3.52-2.84,7.81-3.66,11.91-2.8,4.1-.86,8.39-.04,11.91,2.8,2.35,1.89,3.95,4.45,4.95,7.27,.55,1.58,1.31,4.05,.9,5.98-.41-.02-.83-.04-1.25-.05-.35-.01-.71-.02-1.06-.03,.8-5.05-3.3-9.08-7.42-11.26-2.29-1.21-5.24-2.1-8.04-2.04-2.8-.06-5.75,.83-8.04,2.04-4.12,2.18-8.22,6.22-7.42,11.26Zm29.71,40.77c.35-1.2,.67-2.4,1-3.61,.64,.1,1.25,.3,1.78,.65,.16,.1,.32,.15,.48,.15,0,.15,.02,.3,.04,.45,.05,.92,.38,1.66,.8,2.4,.36,.76,.84,1.42,1.45,1.98-.03,.04-.04,.08-.05,.14-1.11,4.91-3.14,9.55-5.05,14.18-1.95,4.72-3.63,9.53-5.34,14.35-1.83,5.17-3.56,10.37-5.01,15.65,1.08-7.93,2.15-15.87,3.72-23.73,.8-4.01,1.79-7.99,2.9-11.92,1.01-3.59,2.25-7.11,3.29-10.69Zm5.23-2.64c0-2.39,1.99-4.37,4.37-4.37s4.37,1.98,4.37,4.37-1.98,4.37-4.37,4.37-4.37-1.99-4.37-4.37Zm12.2-35.47c-1.58-.53-3.2-.96-4.82-1.33,0-4.29,.02-8.52-1.1-12.7-1.25-4.69-4.54-8.25-8.54-10.83-5.33-3.44-11.41-3.9-17.22-2.52-5.8-1.37-11.88-.92-17.22,2.52-4,2.58-7.28,6.14-8.54,10.83-1.12,4.18-1.1,8.4-1.1,12.7-1.63,.36-3.24,.8-4.83,1.33-1.68-5.28-1.6-11.07-.42-16.44,1.07-4.92,2.98-9.97,6.75-13.47,3.38-3.14,7.69-4.95,12.21-5.73,2.85-.49,5.68-.59,8.52,.1,1.6,.39,3.13,.96,4.63,1.62,1.5-.66,3.03-1.22,4.63-1.62,2.83-.69,5.67-.59,8.52-.1,4.52,.78,8.83,2.59,12.21,5.73,3.77,3.5,5.68,8.55,6.75,13.47,1.17,5.37,1.26,11.16-.42,16.44Zm-63.77,12.4c.94,2.27,1.94,4.53,3.03,6.73,.62,1.25,1.22,2.6,2.02,3.78-1.12,.44-2.22,.92-3.3,1.44-2.4-1.97-3.5-5.38-4.57-8.2-.98-2.54-2.44-5.11-3.12-7.8,1.22-.73,2.48-1.4,3.78-1.99,.56,2.06,1.35,4.06,2.17,6.03Zm-4.36,4.75c1.08,2.8,2.23,5.93,4.42,8.08-.89,.48-1.77,1.01-2.62,1.55-.81-.15-1.8-1.58-2.21-2.13-1.14-1.51-2.12-3.14-3.03-4.8-1.3-2.39-2.63-4.87-3.56-7.46,.68-.62,1.39-1.22,2.13-1.8,.55-.42,1.12-.83,1.69-1.22,.77,2.67,2.2,5.25,3.17,7.78Zm.2,10.71c-.83,.57-1.62,1.2-2.4,1.85-2.61-1.39-4.68-3.84-6.45-6.15-1.3-1.7-2.51-3.48-3.65-5.29,1.24-1.57,2.52-3.09,3.91-4.52,1.1,2.87,2.64,5.64,4.15,8.26,.96,1.65,1.97,3.35,3.28,4.75,.35,.38,.73,.77,1.16,1.1Zm-26.69,5.34c3.8,3.87,9.04,6.15,13.53,9.12-.54,.79-1.06,1.59-1.59,2.39-2.96-1.86-5.98-3.63-9.02-5.35-2.52-1.43-5.04-2.82-7.53-4.27,1.59-.43,3.13-1.06,4.6-1.89Zm1.55-.96c1.14-.77,2.21-1.64,3.22-2.58,3.05,3.57,6.76,7.56,11.22,9.19-.5,.66-.97,1.33-1.45,2.02-4.29-2.82-9.33-5-12.99-8.63Zm9.3,1.1c-1.71-1.53-3.3-3.19-4.81-4.93,.98-1.02,1.91-2.08,2.8-3.18,1.15,1.7,2.52,3.27,3.96,4.69,1.91,1.89,3.98,3.67,6.33,4.96-.7,.81-1.37,1.64-2.03,2.48-2.35-.71-4.45-2.42-6.25-4.03Zm3.08-4.78c-1.43-1.47-2.82-3.05-3.93-4.8,1.02-1.34,2.02-2.67,3.02-3.99,1.21,1.89,2.48,3.75,3.89,5.5,1.71,2.13,3.62,4.25,5.97,5.68-.27,.26-.55,.52-.82,.79-.6,.58-1.17,1.18-1.73,1.78-2.4-1.21-4.55-3.05-6.4-4.95Zm11.66,12.72c2.38,0,4.37,1.98,4.37,4.37s-1.99,4.37-4.37,4.37-4.37-1.98-4.37-4.37,1.99-4.37,4.37-4.37Zm-.8,11.18c1.7,0,3.1-.14,4.5-1.13,7.92,9.5,14.38,20.15,19.83,31.27-3.56-5.07-7.48-9.95-11.42-14.68-4.42-5.31-9.06-10.52-14.35-15,0-.23-.03-.48-.1-.72,.49,.17,1,.27,1.53,.27Zm5.79-2.37c.72-.9,1.18-1.99,1.32-3.13,.17-1.35-.19-2.88-.94-4.17,0-.02,.01-.04,.01-.05,7.98,8.82,14,19.4,18.36,30.43,2.32,5.84,4.23,11.85,5.7,17.96-6.37-14.6-14.21-28.8-24.45-41.04Zm19.23,15.81c-4.25-9.18-9.66-17.87-16.42-25.37,.31-.18,.61-.38,.9-.61,1,1.02,2.31,1.68,3.73,1.85,1.22,.15,2.46-.05,3.56-.59,1.13,4.67,3,9.09,4.83,13.52,1.95,4.71,3.65,9.52,5.36,14.33,2.73,7.7,5.26,15.45,6.93,23.43-.56-2.52-1.18-5.02-1.89-7.5-1.86-6.52-4.15-12.92-7.01-19.06Zm8.33-5.6c-.81-3.98-1.77-7.92-2.86-11.82-1.04-3.73-2.3-7.38-3.39-11.1-.25-.85-.48-1.7-.71-2.55,.7,.19,1.38,.44,2.01,.7,.02,1.58,.55,3.13,1.52,4.38,1.05,1.35,3.02,2.75,4.82,2.75,.34,0,.67,0,1-.03,1.72,13.85,1.42,27.8,1.38,41.73-1.09-8.04-2.15-16.11-3.76-24.06Zm1.33-39.13c-.29-.06-.58-.14-.86-.21-.47-.1-.94-.2-1.41-.28-.75-5.81-1.59-11.64-1.78-17.5,1.26,.3,2.48,.68,3.67,1.14-.64,5.57,.94,11.26,.38,16.85Zm7.29-16.85c1.18-.45,2.41-.84,3.67-1.14-.19,5.86-1.04,11.69-1.79,17.5-.47,.08-.94,.18-1.4,.28-.29,.07-.57,.15-.86,.21-.56-5.59,1.02-11.28,.38-16.85Zm4.38,35.59c.97-1.25,1.5-2.8,1.52-4.38,.63-.25,1.31-.5,2.01-.7-.23,.85-.47,1.7-.72,2.55-1.09,3.72-2.36,7.36-3.39,11.1-1.09,3.9-2.05,7.85-2.85,11.82-1.62,7.95-2.67,16.02-3.77,24.06-.03-13.92-.33-27.88,1.39-41.73,.33,.02,.65,.03,1,.03,1.8,0,3.77-1.4,4.81-2.75Zm2.94,29.13c1.71-4.81,3.41-9.62,5.37-14.33,1.83-4.43,3.69-8.85,4.83-13.52,1.1,.53,2.34,.74,3.56,.59,1.41-.17,2.73-.84,3.73-1.85,.29,.23,.59,.43,.91,.61-6.78,7.5-12.18,16.18-16.43,25.37-2.85,6.14-5.15,12.54-7,19.06-.7,2.48-1.33,4.98-1.9,7.5,1.68-7.98,4.21-15.73,6.94-23.43Zm2.44,4.13c4.37-11.03,10.37-21.61,18.36-30.43,0,.01,0,.03,.01,.05-.75,1.28-1.12,2.81-.95,4.17,.15,1.15,.62,2.23,1.32,3.13-10.24,12.24-18.08,26.44-24.45,41.04,1.47-6.11,3.38-12.12,5.7-17.96Zm20.04-21.84c1.4,1,2.8,1.13,4.5,1.13,.53,0,1.05-.09,1.53-.27-.07,.25-.1,.49-.1,.72-5.28,4.47-9.92,9.69-14.35,15-3.94,4.73-7.85,9.61-11.42,14.68,5.45-11.11,11.92-21.77,19.83-31.27Zm3.69-1.31c-2.37,0-4.36-1.98-4.36-4.37s1.99-4.37,4.36-4.37,4.38,1.98,4.38,4.37-1.99,4.37-4.38,4.37Zm3.54-18.28c-.27-.27-.54-.53-.82-.79,2.35-1.43,4.26-3.55,5.97-5.68,1.41-1.75,2.69-3.6,3.89-5.5,1.01,1.32,2,2.65,3.02,3.99-1.12,1.75-2.5,3.33-3.94,4.8-1.85,1.91-4,3.74-6.4,4.95-.56-.6-1.13-1.2-1.72-1.78Zm9.26-1.81c1.44-1.42,2.81-2.99,3.96-4.69,.88,1.1,1.81,2.16,2.79,3.18-1.5,1.74-3.09,3.4-4.81,4.93-1.8,1.61-3.89,3.32-6.25,4.03-.65-.85-1.32-1.68-2.02-2.48,2.36-1.3,4.42-3.07,6.33-4.96Zm8.03-.26c1.01,.95,2.08,1.81,3.22,2.58-3.66,3.62-8.7,5.8-12.99,8.63-.47-.68-.96-1.36-1.45-2.02,4.45-1.63,8.17-5.63,11.22-9.19Zm4.77,3.55c1.47,.83,3.02,1.46,4.61,1.89-2.49,1.45-5.03,2.84-7.53,4.27-3.04,1.72-6.06,3.49-9.02,5.35-.53-.8-1.06-1.6-1.59-2.39,4.5-2.97,9.74-5.25,13.53-9.12Zm-2.3-11.78c-.97,.14-1.95,.2-2.92,.2-1.13-1.42-2.18-2.89-3.24-4.35-1.88-2.62-3.96-5.05-6.24-7.33-2.93-2.94-6.29-5.32-9.93-7.18,2.79-3.07,6.88-4.8,9.35-8.19,5.86,7.84,16.34,13.2,25.8,8.54,4.17-2.05,8.05-5.9,9.73-10.28,1.6-4.17,.76-8.87-1.97-12.35-2.45-3.12-6.15-4.96-10.09-5.17-1.53-.08-3.27,.08-4.5,1.12-.22,.18-.4,.37-.55,.58-1.31,.38-2.4,1.69-1.75,3.35,.82,2.11,1.3,4.42,1.08,6.44-.03,.26-.07,.5-.12,.75-.01,.05-.02,.08-.02,.12-.01,.03-.03,.09-.05,.17-.07,.22-.17,.43-.25,.64-.03,.05-.11,.21-.17,.3-.09,.14-.2,.27-.31,.4,0,0,0,.02-.01,.02-.03,.02-.06,.05-.12,.09-.05,.05-.33,.22-.35,.25-.21,.09-.43,.16-.64,.23,.44-.14-.98,.05-.76,.05-.63-.02-1.24-.13-1.85-.27-1.25-.28-2.78-.92-3.83-1.55-.63-.36-1.14-.73-1.57-1.12,3.45-1.87,6.15-5.11,8.28-8.31,2.22-3.32,4.29-7.29,4.77-11.34,1.51-.41,3.05-.68,4.62-.77,8.15-.49,15.21,4.19,19.88,10.59-.06,4.21-1.04,8.43-2.35,12.4-1.65,5.02-3.97,9.84-6.82,14.28-5.24,8.14-13.06,16.28-23.09,17.72Zm-12.24-40.2c-1.06-1.16-2-2.4-2.28-4.02,0-.04-.03-.08-.04-.13,1.62-1.55,3.24-3.1,4.64-4.85,.12,.59,.23,1.18,.31,1.76-1.37,2.21-2.37,4.7-2.63,7.23Zm1.49,6.93c-.05,1.14-.15,2.28-.28,3.42-2.37-3.5-3.85-7.51-4.31-11.62,.82,1.41,1.99,2.56,3.1,3.83,.02,.23,.04,.45,.08,.68,.24,1.37,.73,2.6,1.41,3.7Zm.38-18.3c-1.44,2.1-3.24,3.87-5.06,5.62,.23-3.01,1.04-5.99,2.5-8.77,.86-.25,1.73-.43,2.6-.58-.31,1.2-.25,2.46-.04,3.73Zm13.17-.65c-2.07,5.42-6.23,9.88-9.97,14.29-.14-.84-.1-1.22,.06-2.26,.16-1.05,.44-1.77,.96-2.94,.8-1.77,2.4-3.92,3.78-5.27,1.54-1.51,3.29-2.8,5.18-3.81Zm-4.52-3.16c.53-2.76,1.54-5.65,3.59-7.33,1.75,.52,3.7,.69,5.52,.93-.95,1.02-1.82,2.1-2.65,3.24h0c-2.27,.78-4.45,1.84-6.47,3.17Zm-2.05,1.49c-1.28,1.02-2.48,2.16-3.57,3.4-.27,.31-.54,.64-.81,.97-.05-.29-.11-.6-.17-.9-.3-1.67-.76-3.6,0-5.21,1.75-.28,3.48-.61,5.12-1.32-.25,1.03-.44,2.06-.57,3.06Zm-1.46,25.39c.79,1.23,1.66,2.42,2.37,3.7,.6,1.06,.91,2.23,1.35,3.35-2.5-1.17-4.77-2.9-6.66-4.85-.47-.48-.91-.99-1.35-1.51,.18-1.14,.32-2.27,.41-3.41,1.12,1.09,2.44,2,3.87,2.72Zm14.44-2.94c.32-.81,.52-1.65,.64-2.51,1.86-2.54,4.07-4.82,6.78-6.36,3.9,3.33,4.45,8.88,1.47,13.13-.56,.8-1.19,1.57-1.86,2.27-2.14-2.13-4.91-4.02-7.85-4.97,.32-.46,.6-.99,.82-1.56Zm-.67-11.23c.44-.14,1.04-.18,1.54-.17,1.8,.06,3.45,.52,4.96,1.4-1.94,1.23-3.64,2.8-5.14,4.56-.16-2-.69-4-1.37-5.79Zm1.64,15.57c1.72,.87,3.36,2.05,4.77,3.42-2.85,2.46-6.42,4-10.27,3.83-1.25-.05-2.48-.28-3.67-.63-1.18-1.55-1.45-3.63-2.4-5.33-.29-.51-.61-1.02-.93-1.51,.81,.27,1.63,.47,2.44,.63,2.58,.5,5.1-.12,6.93-1.68,1.1,.31,2.15,.77,3.14,1.28Zm7.93-40.03c2,.42,3.98,.97,5.93,1.64,.3,.75,.62,1.5,.97,2.24-1.16,.1-2.39,.75-3.28,1.25-.06,.04-.13,.07-.2,.12-3.33-.98-6.41-3.04-8.28-5.96,1.63,.15,3.26,.39,4.86,.72Zm-8.9-4.09s.03-.02,.05-.04c5.33-2.42,10.99-4.28,16.8-5.13-.63,2.53-1.11,5.1-1.3,7.7-2.41-.82-4.86-1.47-7.35-1.94-2.72-.51-5.47-.71-8.19-.59Zm4.32,6.57c1.7,1.76,3.83,3.13,6.12,4-.5,.35-1,.7-1.5,1.05-3.5-.65-7.07-.54-10.51,.23,1.7-2.04,3.62-3.83,5.88-5.29Zm17.64,11.53c-2.09-1.78-4.4-3.29-6.88-4.48-1.26-.6-2.55-1.08-3.86-1.46,.37-.26,.74-.52,1.12-.77,.89-.58,3.34-2.38,4.38-1.38,.08,.08,.17,.14,.26,.17,.54,.94,1.1,1.85,1.71,2.74,1.3,1.9,2.92,3.84,4.87,5.21-.55,0-1.08-.01-1.6-.03Zm-27.27-17.46c-.17,.04-.35,.07-.51,.11,.16-.09,.33-.18,.49-.28,0,.05,.01,.11,.02,.17Zm7.23,2.62c.35,.68,.76,1.33,1.22,1.95-1.22,.79-2.35,1.68-3.4,2.66-2.92-.47-7.23-.25-9.35-2.59,.27-.11,.53-.22,.79-.33,3.45-1.33,7.09-1.81,10.74-1.7Zm-20.19,3.43c-1.72,1.41-3.3,3.05-4.69,4.92-6.19,8.32-6.43,19.26-1.97,28.26-.34,.16-.63,.4-.84,.73-.97,1.55-2.35,2.7-3.78,3.78,1.08-5.65,1.4-11.43,.41-17.14-.73-4.13-2.13-8.27-4.31-11.9,2.05-4.36,3.96-8.78,7.26-12.38,2.78-3.03,5.86-5.74,8.3-9.01-.02,3.97-.15,7.96-.85,11.87-.08,.44,.14,.74,.45,.88Zm-92.26,20.55c-1,5.71-.67,11.49,.4,17.14-1.43-1.08-2.8-2.23-3.77-3.78-.21-.33-.5-.57-.83-.73,4.47-9,4.22-19.95-1.97-28.26-1.38-1.88-2.96-3.51-4.68-4.92,.3-.14,.52-.44,.44-.88-.69-3.91-.81-7.9-.84-11.87,2.45,3.28,5.53,5.98,8.3,9.01,3.31,3.6,5.22,8.02,7.26,12.38-2.18,3.63-3.58,7.78-4.3,11.9Zm-28.88-19.37c-1.05-.98-2.18-1.87-3.4-2.66,.47-.62,.88-1.27,1.23-1.95,3.64-.11,7.28,.37,10.73,1.7,.27,.11,.52,.21,.78,.33-2.11,2.34-6.43,2.12-9.35,2.59Zm5.05-7.23c.02-.05,.02-.11,.02-.17,.17,.09,.33,.18,.5,.28-.17-.04-.35-.07-.52-.11Zm-22.02,9.38c1.04-1,3.49,.8,4.37,1.38,.38,.25,.75,.51,1.13,.77-1.31,.38-2.6,.86-3.86,1.46-2.48,1.19-4.79,2.7-6.88,4.48-.52,.02-1.05,.03-1.6,.03,1.95-1.37,3.56-3.31,4.86-5.21,.6-.89,1.18-1.8,1.71-2.74,.09-.03,.17-.09,.26-.17Zm-2.15,65.2c2.5,2.48,5.14,4.8,7.9,6.95,.45,1.1,.86,2.22,1.3,3.3,1.05,2.61,2.13,5.2,3.29,7.77,2.24,4.96,4.72,9.82,7.67,14.39,.45,.7,.91,1.38,1.38,2.05-1.9-1.15-3.79-2.3-5.75-3.35-2.53-1.35-5.03-2.72-7.51-4.15-1.66-.95-3.32-1.94-4.97-2.95-5.59-4.5-9.5-10.82-11.67-17.63-1.14-3.59-1.85-7.33-2.04-11.1-.13-2.72,.05-5.39,.39-8.05,2.68,4.71,6.18,9.01,10,12.78Zm20.98,30.38c-2.93-4.72-5.4-9.7-7.62-14.78-.95-2.19-1.86-4.39-2.73-6.6,1.24,.88,2.49,1.73,3.78,2.54,5.88,3.72,12.14,6.84,18.09,10.47,6.19,3.78,12.42,7.93,17.53,13.13,1.3,1.33,2.58,2.69,3.85,4.07,.35,3.44,.6,6.89,1.32,10.27,.73,3.39,1.77,6.7,3.1,9.91,.12,.3,.25,.61,.38,.9-1.49-1.05-3.02-2.02-4.6-2.92-2.93-1.66-5.98-3.01-9.12-4.16-.05-.24-.2-.46-.47-.6-9.89-4.98-17.7-12.88-23.51-22.23Zm35.9,18.42c-.48-2.44-.74-4.89-.99-7.35,3.29,3.72,6.42,7.59,9.45,11.53,4.48,5.85,8.94,11.7,12.17,18.35,3.07,6.33,5.35,13,7.2,19.77,1.2,4.4,2.25,8.85,3.26,13.31-.16-.25-.32-.5-.48-.75-1.87-2.91-3.87-5.73-5.85-8.57-4.17-5.94-8.1-12-11.91-18.17-3.61-5.87-7.18-11.82-9.77-18.22-1.3-3.21-2.4-6.5-3.07-9.91Zm30.96,34.98c-.05-.27-.1-.54-.15-.82,.03,.02,.05,.03,.09,.04,.07,.4,.13,.8,.19,1.2-.04-.14-.09-.28-.13-.42Zm1.77-.78s.06-.03,.1-.04c-.05,.28-.1,.55-.15,.82-.05,.15-.09,.29-.14,.42,.07-.4,.13-.8,.2-1.2Zm3.08,8.1c1.85-6.78,4.12-13.44,7.19-19.77,3.23-6.65,7.7-12.5,12.18-18.35,3.02-3.94,6.15-7.8,9.44-11.53-.24,2.46-.51,4.91-.99,7.35-.66,3.4-1.76,6.7-3.07,9.91-2.59,6.39-6.15,12.35-9.78,18.22-3.81,6.17-7.74,12.23-11.91,18.17-1.99,2.84-3.98,5.65-5.85,8.57-.15,.25-.32,.5-.48,.75,1.02-4.45,2.06-8.9,3.27-13.31Zm26.4-31.72c1.32-3.21,2.36-6.52,3.1-9.91,.72-3.38,.97-6.83,1.32-10.27,1.26-1.38,2.54-2.74,3.85-4.07,5.1-5.2,11.33-9.35,17.53-13.13,5.95-3.63,12.2-6.75,18.08-10.47,1.29-.81,2.55-1.66,3.78-2.54-.87,2.21-1.78,4.41-2.73,6.6-2.22,5.09-4.68,10.07-7.61,14.78-5.81,9.36-13.62,17.25-23.51,22.23-.27,.14-.42,.36-.49,.6-3.12,1.15-6.18,2.5-9.1,4.16-1.58,.89-3.11,1.87-4.6,2.92,.13-.3,.25-.6,.38-.9Zm38.13-26.98c2.96-4.58,5.44-9.43,7.67-14.39,1.15-2.56,2.24-5.15,3.29-7.77,.44-1.08,.84-2.2,1.3-3.3,2.76-2.15,5.4-4.47,7.9-6.95,3.82-3.77,7.32-8.07,10-12.78,.35,2.66,.52,5.33,.39,8.05-.18,3.77-.9,7.51-2.03,11.1-2.17,6.81-6.08,13.13-11.67,17.63-1.65,1.02-3.3,2-4.96,2.95-2.47,1.43-4.99,2.8-7.51,4.15-1.96,1.05-3.85,2.2-5.75,3.35,.47-.67,.93-1.36,1.38-2.05Zm31.56-47.83c2.61-5.36,4.12-11.19,3.86-17.3-.12-2.78-.68-5.55-1.57-8.24,.07,.1,.13,.19,.2,.29,1.38,2.05,2.47,4.28,3.55,6.48,1.27,2.61,2.6,5.21,3.74,7.87,1.35,3.15,1.87,6.35,2.45,9.68,.03,.16,.09,.29,.17,.4-2.53,6.97-6.66,13.07-12.42,17.84,1.04-5.62,.93-11.31,.02-17.03Zm13.49-4.22c-.44-2.35-.97-4.63-1.89-6.91-.8-1.99-1.74-3.92-2.7-5.84,.2-.17,.35-.41,.35-.74-.02-6.84-.79-14.03-3.22-20.5-.48-1.27-1-2.62-1.6-3.96,2.5,2.26,4.79,4.7,6.82,7.27,1.4,1.77,2.61,3.65,3.65,5.62,0,3.81,.28,7.62,.37,11.43,.09,4.67-.53,9.15-1.78,13.63Zm-8.97-32.95c2.02,5.42,2.76,11.45,2.93,17.25-1.78-3.62-3.8-8.03-7.17-10.51-.75-1.52-1.6-2.99-2.5-4.38-1.19-1.82-2.56-3.51-4.09-5.05,1.17,0,2.35-.01,3.5,.04,2.42,.12,5.46,.37,7.07,2.42,.08,.09,.17,.17,.26,.22Zm-7.6-4.49c-.09-.14-.23-.25-.42-.32-2.87-1.02-4.95-3.55-6.64-5.96-1.12-1.6-2.12-3.32-2.93-5.11,.08-.02,.15-.03,.23-.05,4.86,1.96,9.48,4.67,13.68,7.91,.98,1.45,1.76,3.11,2.43,4.74-1.85-.94-4.08-1.17-6.34-1.21Zm-15.89-38.01c-3.38,1.78-6.67,3.92-9.55,6.48,.1-.6,.22-1.2,.35-1.8,.63-2.75,1.75-5.32,2.73-7.96,.96-2.6,1.96-5.21,3.33-7.63,.54,.31,1.07,.63,1.61,.94,1.18,.48,2.4,.64,3.66,.49,.1,0,.19,0,.27,0,1.42-.2,2.28-.6,3.46-1.4,.6-.41,1-.82,1.32-1.27,.1,0,.2,0,.3-.04,4.29-1.39,8.87-1.81,13.35-1.35-1.48,1.17-2.81,2.56-4,4-1.39,1.67-2.61,3.47-3.72,5.35-4.61,.29-9.06,2.08-13.1,4.2Zm-15.62-30.12c-.91,2.88-1.65,5.81-2.35,8.75-.63,2.61-1.3,5.21-1.52,7.89-.08,1.01-.13,2.05-.22,3.08-.69-1.07-1.4-2.1-2.1-3.12-2.48-3.54-5.16-6.92-7.96-10.23,0-.16,.02-.32,.03-.49,.57-.84,1.47-1.55,2.17-2.13,1.62-1.34,3.45-2.45,5.3-3.42,1.85-.97,3.77-1.81,5.75-2.45,.55-.17,1.15-.36,1.75-.49-.31,.87-.58,1.75-.85,2.62Zm-9.25,33.85c-.8,5.27,.15,10.62,.13,15.95-.87,.58-1.89,1.07-2.9,1.43,.27-3.43,.25-6.9,.25-10.34,0-1.01-1.33-.89-1.71-.23-2.63,4.62-6.91,7.87-10.35,11.83-2.83,3.27-4.62,7.2-6.43,11.09-.72-1.03-1.53-2-2.4-2.91,1.2-2.97,2.43-5.92,4.05-8.69,1.71-2.93,3.87-5.52,6.22-7.96,2.3-2.38,4.73-4.64,7.35-6.66,1.75-1.35,3.7-2.68,5.79-3.51Zm-7-33.93c0,1.45,.28,2.95,.37,4.43-2.29-2.63-4.63-5.22-7.01-7.77,.13-3.47-1.29-7.18-1.87-10.41-.48-2.68-.32-5.52-.25-8.23,0-.07,0-.14,0-.21,1.41,1.23,2.93,2.35,4.11,3.8,1.94,2.41,3.64,4.97,4.9,7.8-.1,.77-.17,1.53-.21,2.31-.15,2.76-.05,5.53-.05,8.29Zm-7.19,24.93c-.01,.28-.04,.57-.05,.85,0-.35,0-.7,0-1.05,.02,.07,.04,.13,.06,.19Zm-.99-74.99c-.89,2.65-1.68,5.35-2.13,8.12-.5,3.07-.77,6.2-1.07,9.29-.17,1.85-.32,3.7-.44,5.55-2.53,.16-4.99,1.5-7.1,2.77-1.38,.83-2.82,1.82-4.07,2.98-.04-5.88-.24-11.75-.07-17.62,.02-.03,.05-.06,.07-.1,1.76-3.02,4.55-5.35,7.37-7.35,2.35-1.67,4.92-3.16,7.64-4.17-.06,.19-.12,.36-.19,.54Zm-17.01-14.48c0-2.38,1.99-4.37,4.37-4.37s4.36,1.99,4.36,4.37-1.99,4.36-4.36,4.36-4.37-1.98-4.37-4.36Zm-1.11-3.93c-1.17,1.51-1.7,3.45-1.46,5.35,.24,1.9,1.24,3.65,2.75,4.82,.61,.47,1.23,.8,1.86,1.02-.29,4.29-.93,8.55-1.35,12.83-.88-2.27-1.81-4.51-3.38-6.45-1.82-2.25-4.22-3.96-6.08-6.15,.35-2.52,.77-5.03,1.31-7.52,1.23-5.66,3.43-10.83,6.13-15.93,.27-.51,.54-1.03,.82-1.54,.8,1.62,1.34,3.38,1.86,5.09,.59,1.92,1.09,3.87,1.61,5.81-1.58,.3-3.16,1.51-4.07,2.68Zm-39.56,3.9c.54,2.49,.96,5,1.3,7.52-1.86,2.19-4.26,3.9-6.08,6.15-1.57,1.94-2.5,4.18-3.38,6.45-.41-4.28-1.06-8.54-1.35-12.83,.63-.22,1.25-.54,1.86-1.02,1.51-1.17,2.51-2.92,2.75-4.82,.24-1.9-.29-3.84-1.46-5.35-.91-1.17-2.5-2.37-4.08-2.68,.53-1.94,1.03-3.89,1.62-5.81,.52-1.7,1.06-3.47,1.85-5.09,.27,.51,.55,1.03,.82,1.54,2.7,5.1,4.9,10.27,6.14,15.93Zm-7.46,.03c0,2.38-1.99,4.36-4.38,4.36s-4.37-1.98-4.37-4.36,1.98-4.37,4.37-4.37,4.38,1.99,4.38,4.37Zm-2.13,25.56c.17,5.87-.03,11.75-.07,17.62-1.25-1.16-2.69-2.15-4.07-2.98-2.11-1.27-4.58-2.61-7.11-2.77-.12-1.85-.26-3.7-.44-5.55-.3-3.09-.57-6.23-1.07-9.29-.45-2.77-1.24-5.46-2.14-8.12-.06-.18-.12-.35-.18-.54,2.72,1.01,5.29,2.5,7.63,4.17,2.82,2.01,5.61,4.33,7.38,7.35,.02,.04,.05,.07,.07,.1Zm-16.42,35.63c-2.37,2.56-4.72,5.14-7,7.77,.09-1.49,.36-2.99,.37-4.43,0-2.76,.1-5.53-.05-8.29-.04-.77-.12-1.54-.21-2.31,1.26-2.82,2.96-5.39,4.9-7.8,1.18-1.45,2.7-2.57,4.11-3.8,0,.08,0,.14,0,.21,.07,2.72,.23,5.55-.25,8.23-.58,3.23-2,6.94-1.87,10.41Zm.62,28.08c0,.35,0,.7,0,1.05-.02-.29-.04-.57-.06-.85,.02-.06,.04-.13,.07-.19Zm-1.13,19.36c2.36,2.44,4.52,5.03,6.23,7.96,1.61,2.76,2.86,5.72,4.04,8.69-.87,.91-1.67,1.88-2.39,2.91-1.81-3.89-3.6-7.82-6.44-11.09-3.43-3.97-7.71-7.21-10.35-11.83-.38-.66-1.7-.78-1.7,.23,0,3.43-.02,6.9,.25,10.34-1-.36-2.03-.85-2.9-1.43-.03-5.33,.93-10.67,.13-15.95,2.1,.83,4.03,2.16,5.8,3.51,2.62,2.02,5.05,4.28,7.34,6.66Zm-16.19-27.42c-.7,1.01-1.41,2.05-2.1,3.12-.09-1.03-.14-2.07-.22-3.08-.21-2.68-.9-5.27-1.52-7.89-.7-2.94-1.44-5.87-2.35-8.75-.28-.88-.55-1.76-.85-2.62,.6,.13,1.2,.32,1.75,.49,1.98,.64,3.9,1.48,5.75,2.45,1.86,.98,3.68,2.09,5.3,3.42,.7,.58,1.59,1.3,2.17,2.13,0,.17,.02,.33,.03,.49-2.8,3.31-5.48,6.7-7.96,10.23Zm-15.34,10.25c.97,2.64,2.1,5.21,2.72,7.96,.14,.6,.25,1.2,.35,1.8-2.88-2.56-6.17-4.7-9.55-6.48-4.05-2.12-8.5-3.92-13.1-4.2-1.11-1.87-2.33-3.68-3.72-5.35-1.19-1.43-2.53-2.82-4.01-4,4.47-.47,9.06-.05,13.35,1.35,.11,.03,.21,.05,.31,.04,.32,.45,.71,.86,1.32,1.27,1.18,.8,2.03,1.2,3.45,1.4,.08,0,.18,0,.27,0,1.27,.15,2.49,0,3.67-.49,.54-.31,1.07-.63,1.61-.94,1.37,2.42,2.37,5.02,3.33,7.63Zm-12.59,29.84c.08,.02,.15,.03,.23,.05-.83,1.79-1.81,3.51-2.94,5.11-1.7,2.42-3.77,4.94-6.64,5.96-.2,.07-.34,.18-.43,.32-2.27,.04-4.49,.27-6.34,1.21,.67-1.63,1.45-3.28,2.43-4.74,4.18-3.24,8.81-5.95,13.67-7.91Zm-10.04,13.28c1.16-.05,2.33-.03,3.5-.04-1.53,1.54-2.9,3.23-4.09,5.05-.91,1.39-1.75,2.86-2.5,4.38-3.38,2.48-5.39,6.88-7.17,10.51,.16-5.81,.9-11.83,2.92-17.25,.1-.06,.18-.14,.26-.22,1.61-2.05,4.66-2.3,7.07-2.42Zm-2.8,39.82c-.91,5.72-1.02,11.4,.01,17.03-5.76-4.77-9.88-10.87-12.42-17.84,.08-.11,.15-.24,.17-.4,.58-3.33,1.11-6.53,2.45-9.68,1.14-2.66,2.46-5.26,3.74-7.87,1.09-2.2,2.17-4.44,3.55-6.48,.07-.1,.13-.19,.2-.29-.88,2.68-1.45,5.45-1.57,8.24-.26,6.11,1.25,11.93,3.86,17.3Zm-6.04-38.21c-2.43,6.47-3.19,13.66-3.21,20.5,0,.33,.14,.57,.34,.74-.96,1.92-1.9,3.85-2.7,5.84-.91,2.28-1.45,4.56-1.89,6.91-1.25-4.47-1.87-8.96-1.77-13.63,.07-3.81,.36-7.62,.37-11.43,1.04-1.96,2.25-3.85,3.65-5.62,2.03-2.57,4.32-5.01,6.81-7.27-.6,1.34-1.12,2.69-1.6,3.96Zm-12.9,46.06c4.79,10.5,12.94,18.97,22.07,25.86,3.38,2.55,6.9,4.91,10.5,7.14,.17,.13,.35,.28,.52,.42,.15,.12,.31,.17,.47,.19,1.12,.68,2.24,1.35,3.37,2.01,2.51,1.45,5.05,2.86,7.6,4.23,3.38,1.81,6.59,3.88,9.92,5.77,.04,.03,.08,.04,.13,.06,4,5.03,8.68,9.43,14.05,12.96-5.77-1.64-11.7-2.88-17.48-4.35-10.31-2.61-20.77-6.12-28.47-13.62-.09-.17-.17-.35-.27-.52-2.77-5.2-6.2-10.02-10.23-14.33-3.26-3.5-6.8-6.68-10.54-9.62-2.23-6.87-3.38-14.13-3.63-21.35,.56,1.75,1.22,3.46,1.98,5.14Zm56.15,57.33c5.79,1.38,11.61,2.72,17.24,4.67,6.22,2.15,11.95,5.15,17.15,9.2,2.39,4.96,5.22,9.7,8.12,14.39,3.99,6.44,8.11,12.76,12.46,18.96,2.05,2.91,4.04,5.85,5.98,8.84,.63,.96,1.26,1.9,1.93,2.82,.67-.92,1.31-1.86,1.94-2.82,1.93-2.99,3.93-5.93,5.98-8.84,4.36-6.2,8.47-12.52,12.46-18.96,2.9-4.68,5.73-9.43,8.12-14.39,5.2-4.05,10.92-7.05,17.15-9.2,5.63-1.95,11.45-3.29,17.23-4.67,11.01-2.62,22.45-5.44,31.53-12.56-.94,2.15-1.76,4.36-2.5,6.6-2.55,5.35-7.62,8.6-12.73,11.32-6.65,3.54-13.59,6.43-20.41,9.6-12.95,6.02-25.06,14.08-35.7,23.6-8.37,7.48-15.78,16.08-21.45,25.79-.54,.92-1.07,1.85-1.6,2.78-.53-.93-1.06-1.86-1.6-2.78-5.66-9.72-13.08-18.31-21.45-25.79-10.64-9.52-22.76-17.57-35.7-23.6-6.82-3.17-13.77-6.06-20.42-9.6-5.12-2.72-10.17-5.96-12.72-11.32-.74-2.23-1.57-4.44-2.5-6.6,9.07,7.12,20.51,9.94,31.52,12.56Zm130.75-3.03c-5.79,1.47-11.7,2.71-17.47,4.35,5.37-3.53,10.05-7.93,14.05-12.96,.04-.02,.08-.03,.13-.06,3.33-1.89,6.54-3.96,9.92-5.77,2.55-1.37,5.09-2.79,7.6-4.23,1.13-.65,2.26-1.33,3.38-2.01,.15-.02,.31-.07,.46-.19,.18-.14,.35-.28,.53-.42,3.6-2.23,7.12-4.59,10.5-7.14,9.14-6.88,17.28-15.36,22.07-25.86,.77-1.68,1.42-3.4,1.98-5.14-.25,7.22-1.4,14.49-3.63,21.35-3.73,2.94-7.28,6.12-10.54,9.62-4.03,4.31-7.46,9.13-10.23,14.33-.09,.17-.17,.35-.27,.52-7.7,7.5-18.16,11.01-28.47,13.62Zm41.21-144.7c3.95,.13,6.32,3.07,7.07,6.76,.02,.08,.04,.15,.06,.22-.65,.19-1.3,.46-1.92,.83-5.18,3.03-6.69,10.27-7.15,15.75-.48,5.88,.66,11.7,2.55,17.25-1.16-1.19-2.39-2.34-3.65-3.45-.22-.29-.42-.59-.61-.9-.12-.19-.27-.3-.43-.35-.04-.27-.16-.54-.39-.8-4.12-4.63-7.07-10.07-7.86-16.27-.63-4.91-.17-10.73,3.14-14.65,2.18-2.59,5.73-4.49,9.18-4.39Zm-6.7-12.41c-4.29-.48-8.68-.15-12.85,.97,.38-.98,.38-2.36,.3-3.29-.02-.65-.17-1.25-.47-1.8-.34-.63-.54-1.02-.72-1.34,1.3-1.81,2.83-3.44,4.31-5.12,3.1,3.55,6.25,7.07,9.42,10.57Zm-18.85-21.53s0-.08,0-.11c2.72,3.27,5.47,6.51,8.26,9.72-1.47,1.68-3.01,3.3-4.34,5.1-.11-.1-.23-.21-.36-.33-.02-.02-.05-.03-.07-.05-.08-.05-.15-.1-.22-.17-.56-.33-1.13-.65-1.68-.97-.53-.21-1.05-.36-1.58-.45-.18-4.25,.15-8.5,0-12.75Zm4.21,19.9c0,2.38-1.98,4.37-4.37,4.37s-4.37-1.98-4.37-4.37,1.99-4.37,4.37-4.37,4.37,1.99,4.37,4.37Zm-10.82-28.11c1.55,1.94,3.11,3.86,4.68,5.77,.09,1.02,.14,2.03,.18,3.03,.15,4.03-.17,8.06-.02,12.09-.1,0-.2,.01-.3,.02-1.9,.24-3.65,1.24-4.82,2.75-.03,.04-.06,.08-.09,.13-1.6-4.4-3.92-8.55-5.9-12.8-.01-.05-.03-.07-.05-.1,1.55-2.98,3.4-5.81,5.1-8.72,.42-.72,.83-1.44,1.24-2.17Zm-2.24-2.82s-.04,.07-.05,.1c-.69,1.4-1.48,2.75-2.27,4.08-1.72,2.89-3.53,5.73-5.06,8.71-.04,.1-.08,.19-.13,.29-1.02,.11-2.04,.41-2.97,.69-2.26,.68-4.44,1.69-6.52,2.8-2.03,1.1-4,2.35-5.75,3.86-.21,.18-.41,.37-.61,.55-.05-.58-.11-1.16-.16-1.73-.28-2.91-.18-5.9-.1-8.82,.02-.77,.08-1.54,.15-2.3,.07-.05,.12-.1,.17-.17,4.83-6.07,12.82-11.15,20.84-11.23,.82,1.06,1.65,2.11,2.48,3.15Zm-3.82-4.89c-7.24,.52-14.33,4.7-19.23,9.95,.14-.87,.29-1.74,.45-2.61,.34-1.95,.65-3.91,1.09-5.84,.52,.05,1.06,.06,1.63,.06,1.8,0,3.77-1.4,4.82-2.75,1.17-1.51,1.7-3.45,1.46-5.35-.05-.44-.15-.87-.28-1.28,.02-.02,.04-.04,.07-.06,.8-.76,1.7-1.37,2.66-1.88,2.41,3.29,4.85,6.54,7.34,9.77Zm-8.41-11.22c-.88,.48-1.71,1.05-2.45,1.72-.45-.7-1.02-1.34-1.68-1.85-.21-.17-.43-.31-.64-.45,.44-1.35,.94-2.68,1.48-4,1.09,1.54,2.18,3.07,3.3,4.59Zm-15.64-22.88c3.6,5.62,7.31,11.14,11.12,16.56-.68,1.65-1.35,3.32-1.9,5.03-.95-.26-1.96-.31-3.07-.31-.42,0-.86,.08-1.29,.22-1.14-5.7-4.36-10.63-6.76-15.87,.65-1.86,1.32-3.74,1.9-5.63Zm-5.79-9.29c1.14,1.88,2.29,3.74,3.45,5.6-.6,2.59-1.54,5.12-2.44,7.61-3.4,1.02-6.57,2.85-9.46,4.88-2.23,1.55-4.46,3.37-6.2,5.52,.36-4.88,1.16-9.71,1.5-14.59,.55,.06,1.13,.08,1.74,.08,1.8,0,3.77-1.4,4.82-2.75,1.17-1.51,1.7-3.45,1.46-5.35-.08-.62-.24-1.22-.47-1.79,1.36-.63,2.8-1.11,4.28-1.4,.43,.73,.88,1.47,1.32,2.2Zm-6-10.08c1.24,2.1,2.48,4.2,3.73,6.3-1.44,.32-2.84,.81-4.18,1.45-.4-.56-.88-1.06-1.43-1.49-.45-.35-.89-.61-1.34-.81,.53-1.81,1.75-3.48,2.84-4.93,.13-.16,.26-.34,.39-.51Zm-.95-1.65c-.29,.36-.57,.72-.84,1.07-1.22,1.59-2.54,3.5-3.15,5.51-.4-.06-.8-.1-1.22-.12-1.13-4.27-2.03-8.91-4.28-12.73,.97-1.84,1.9-3.72,2.64-5.66,2.26,3.98,4.55,7.96,6.85,11.92Zm-9.1-15.89c-.41,1.86-1.11,3.68-1.95,5.45-2.59-.86-5.26-1.28-7.96-1.46,.51-.41,.97-.86,1.31-1.31,1.18-1.51,1.7-3.45,1.47-5.35-.12-.94-.42-1.83-.88-2.65,1.43-.48,2.97-.8,4.51-.89,1.16,2.07,2.33,4.14,3.5,6.2Zm-4.46-7.92c-1.6,.17-3.2,.56-4.67,1.1-.23-.24-.48-.47-.76-.67-.92-.71-1.83-1.08-2.8-1.27,1.03-2.57,2.54-4.92,3.53-7.5,1.57,2.78,3.13,5.56,4.7,8.34Zm-14.44-25.7c1.36,2.53,2.75,5.05,4.16,7.54,1.48,2.59,2.95,5.18,4.42,7.77-.04,.06-.07,.12-.09,.2-.98,3.23-2.95,6.03-4.12,9.18-.23,0-.48,0-.72,0-.57,0-1.15,.14-1.71,.37-1.32-5.65-2.04-11.41-2.1-17.23-.03-2.6,.1-5.2,.15-7.81Zm-6.06-11.42c1.45,2.72,2.89,5.46,4.34,8.18,0,.08-.01,.13-.01,.17,0,1.53,0,3.06-.03,4.59-.05,2.82-.2,5.62-.12,8.44,.16,5.4,.95,10.76,2.23,16-.59,.44-1.11,.95-1.5,1.45-.18,.24-.35,.49-.5,.75-1.18-2.11-2.7-3.95-4.4-5.63-1.7,1.68-3.21,3.51-4.4,5.63-.15-.26-.32-.5-.5-.75-.4-.5-.91-1.02-1.5-1.45,1.28-5.24,2.07-10.6,2.23-16,.09-2.82-.07-5.62-.12-8.44-.02-1.53-.03-3.06-.03-4.59,0-.04,0-.1-.01-.17,1.45-2.73,2.89-5.46,4.34-8.18Zm-10.23,18.95c1.43-2.48,2.8-5,4.17-7.54,.06,2.6,.18,5.21,.16,7.81-.06,5.82-.78,11.58-2.1,17.23-.57-.23-1.15-.37-1.72-.37-.24,0-.48,0-.71,0-1.17-3.15-3.15-5.94-4.12-9.18-.02-.08-.05-.14-.08-.2,1.47-2.59,2.94-5.18,4.41-7.77Zm-5.57,9.82c.99,2.58,2.5,4.93,3.53,7.5-.97,.18-1.88,.55-2.8,1.27-.27,.21-.52,.44-.75,.67-1.46-.54-3.06-.94-4.66-1.1,1.56-2.78,3.13-5.56,4.7-8.34Zm-5.66,10.05c1.53,.08,3.08,.4,4.51,.89-.46,.81-.76,1.71-.88,2.65-.24,1.9,.29,3.84,1.47,5.35,.35,.45,.8,.9,1.31,1.31-2.71,.17-5.38,.6-7.97,1.46-.83-1.77-1.54-3.59-1.94-5.45,1.17-2.07,2.33-4.14,3.5-6.2Zm-5.75,10.17c.72,1.93,1.66,3.82,2.63,5.66-2.24,3.82-3.14,8.46-4.28,12.73-.42,.02-.83,.06-1.23,.12-.6-2.02-1.92-3.93-3.14-5.51-.28-.35-.55-.71-.84-1.07,2.31-3.96,4.58-7.94,6.85-11.92Zm-7.81,13.57c.13,.17,.26,.35,.39,.51,1.09,1.45,2.3,3.12,2.84,4.93-.45,.2-.9,.47-1.35,.81-.55,.43-1.02,.93-1.43,1.49-1.34-.63-2.74-1.13-4.17-1.45,1.25-2.1,2.49-4.19,3.72-6.3Zm-6,10.08c.45-.73,.88-1.46,1.32-2.2,1.48,.29,2.92,.76,4.28,1.4-.23,.58-.39,1.18-.47,1.79-.23,1.9,.29,3.84,1.46,5.35,1.06,1.35,3.02,2.75,4.82,2.75,.61,0,1.19-.02,1.74-.08,.34,4.88,1.14,9.7,1.51,14.59-1.75-2.15-3.98-3.98-6.21-5.52-2.89-2.02-6.06-3.86-9.46-4.88-.9-2.49-1.83-5.02-2.43-7.61,1.17-1.85,2.31-3.72,3.45-5.6Zm-5.79,9.29c.58,1.89,1.25,3.77,1.9,5.63-2.4,5.24-5.63,10.18-6.76,15.87-.43-.14-.87-.22-1.29-.22-1.11,0-2.11,.05-3.07,.31-.55-1.71-1.21-3.37-1.9-5.03,3.82-5.43,7.53-10.95,11.13-16.56Zm-12.34,18.29c.53,1.32,1.04,2.65,1.47,4-.22,.14-.42,.28-.64,.45-.67,.52-1.24,1.15-1.69,1.85-.74-.67-1.57-1.24-2.45-1.72,1.11-1.52,2.2-3.05,3.3-4.59Zm-4.37,6.05c.96,.51,1.87,1.12,2.67,1.88,.02,.02,.05,.04,.08,.06-.14,.41-.24,.84-.29,1.28-.24,1.9,.29,3.84,1.46,5.35,1.05,1.36,3.02,2.75,4.81,2.75,.58,0,1.11-.01,1.63-.06,.45,1.93,.75,3.89,1.09,5.84,.15,.88,.3,1.75,.45,2.61-4.92-5.25-12-9.43-19.23-9.95,2.48-3.23,4.93-6.48,7.34-9.77Zm-8.69,11.5c8.02,.08,16.01,5.16,20.85,11.23,.05,.07,.1,.12,.16,.17,.08,.76,.13,1.52,.15,2.3,.08,2.92,.17,5.91-.1,8.82-.05,.57-.12,1.15-.16,1.73-.2-.18-.41-.37-.61-.55-1.75-1.52-3.72-2.77-5.75-3.86-2.08-1.12-4.25-2.12-6.53-2.8-.93-.28-1.95-.58-2.97-.69-.04-.1-.09-.19-.13-.29-1.52-2.99-3.35-5.83-5.05-8.71-.8-1.34-1.59-2.69-2.28-4.08-.02-.03-.03-.07-.05-.1,.82-1.04,1.65-2.09,2.47-3.15Zm-9.57,14.78c.03-1,.09-2.01,.17-3.03,1.57-1.91,3.14-3.83,4.69-5.77,.4,.73,.82,1.45,1.24,2.17,1.69,2.91,3.53,5.74,5.08,8.72-.01,.03-.03,.05-.05,.1-1.96,4.25-4.3,8.4-5.9,12.8-.03-.04-.06-.08-.08-.13-1.18-1.52-2.92-2.51-4.82-2.75-.11-.01-.21-.02-.31-.02,.15-4.03-.16-8.06-.02-12.09Zm2.77,19.31c0,2.38-1.99,4.37-4.37,4.37s-4.38-1.98-4.38-4.37,1.99-4.37,4.38-4.37,4.37,1.99,4.37,4.37Zm-4.52-20v.11c-.16,4.24,.17,8.5,0,12.75-.53,.09-1.06,.23-1.58,.45-.56,.32-1.13,.65-1.69,.97-.07,.07-.14,.12-.22,.17-.03,.02-.04,.03-.07,.05-.13,.12-.25,.23-.35,.33-1.33-1.8-2.87-3.42-4.35-5.1,2.79-3.21,5.54-6.45,8.26-9.72Zm-9.43,11.07c1.48,1.68,3,3.3,4.31,5.12-.19,.32-.39,.71-.72,1.34-.3,.55-.45,1.14-.47,1.8-.07,.93-.08,2.31,.3,3.29-4.17-1.13-8.55-1.45-12.85-.97,3.18-3.49,6.33-7.01,9.43-10.57Zm-23.2,29.74c.76-3.7,3.13-6.64,7.08-6.76,3.44-.1,6.99,1.8,9.18,4.39,3.3,3.93,3.77,9.74,3.14,14.65-.79,6.2-3.74,11.64-7.86,16.27-.23,.26-.35,.53-.39,.8-.16,.05-.31,.15-.43,.35-.19,.31-.4,.61-.61,.9-1.26,1.1-2.48,2.25-3.65,3.45,1.89-5.55,3.04-11.37,2.55-17.25-.45-5.48-1.96-12.72-7.14-15.75-.62-.36-1.26-.63-1.92-.83,.02-.06,.05-.14,.06-.22Zm-6.45,4.63c2.78-2.03,6.2-1.96,8.44,.85,1.85,2.33,2.75,5.25,3.26,8.13,.64,3.52,.74,7.08,.24,10.62-.98,6.9-3.75,13.34-6.75,19.58-.14,.27-.18,.54-.17,.78-.24,.44-.46,.88-.69,1.33,.17-6.31-.27-12.7-2.02-18.78-1.29-4.46-3.36-9.26-7.28-11.96,.15-3.97,1.68-8.13,4.98-10.55Zm-9.78,8.26c0,.13-.01,.26-.01,.39-.05,0-.09,0-.14,0,.04-.13,.09-.27,.15-.38Zm-9.71,15.68c-.33-3.49,.32-7.58,3.09-10.04,2.8-2.47,6.71-2.76,9.74-.48,4.57,3.43,6.16,10.07,6.99,15.42,1.05,6.83,.93,13.8,.08,20.64-.84,6.83-2.85,13.49-3.26,20.35-.07,.2-.1,.44-.08,.69,0,.1,.03,.2,.03,.3-.02,.39-.03,.79-.03,1.18,0,.37,.1,.68,.25,.94,.03,.19,.05,.38,.07,.58-.04,2.9,.51,5.8,1.06,8.67,.05,.56,.09,1.13,.14,1.68,.02,.25,.08,.45,.17,.63-.45-.73-.88-1.46-1.31-2.2-1.39-3.98-2.69-7.99-3.64-12.09-1.76-7.59-2.9-15.3-4.65-22.88-.87-3.83-1.86-7.63-3.16-11.33-.88-2.52-1.78-5.07-3.09-7.41-.73-1.31-1.55-2.62-2.57-3.74,.13-.25,.2-.55,.15-.91Zm-12.39,7.52c.72-2.49,2.15-4.87,4.67-5.84,2.08-.8,3.91,0,5.3,1.65,1.58,1.88,2.65,4.12,3.53,6.4,1.28,3.26,2.38,6.59,3.26,9.97,1.97,7.56,3.15,15.29,4.74,22.93,.27,1.25,.55,2.48,.86,3.72-3.5-6.38-6.66-12.94-10.32-19.24-1.92-3.31-3.98-6.56-6.29-9.62-1.62-2.15-3.41-4.28-5.7-5.75-.47-1.32-.45-2.88-.06-4.22Zm-12.22,9.96c.23-1.05,.67-1.97,1.27-2.69,.4-.36,.79-.71,1.18-1.07t0-.02c1.45-.97,3.35-1.22,5.31-.54,2.4,.83,4.45,2.45,6.08,4.4,2.39,2.86,4.47,6.02,6.41,9.22,3.95,6.5,7.2,13.38,10.84,20.05,1.56,2.88,3.29,5.67,4.94,8.5-3.08-2.74-6.12-5.53-9.07-8.43-5.1-5.01-10.09-10.15-15.56-14.75-2.66-2.24-5.41-4.38-8.35-6.23-.85-.55-1.72-1.07-2.6-1.55-.64-2.21-.97-4.63-.47-6.89Zm-13.46,10.05c.17-.25,.35-.48,.54-.69,.36-.3,.71-.6,1.06-.9,3.13-2.05,7.78-.43,10.87,1.37,6.06,3.52,11.41,8.13,16.48,12.95,5.12,4.86,9.99,9.98,15.21,14.75,3.02,2.75,6.38,5.36,9.15,8.42,.17,.51,.35,1.01,.54,1.52-3.2-2.06-6.48-3.99-9.82-5.82-10.5-5.73-21.54-10.41-32.67-14.79-3.8-1.5-7.66-2.91-11.49-4.41-1.35-3.8-2.27-8.93,.12-12.39Zm9.51,33.65c-7.82-6.6-16.25-13.18-22.63-20.94,.08-.1,.16-.19,.24-.29,6.04,2.87,12.38,5.2,18.61,7.63,11.02,4.29,22,8.74,32.5,14.18,.35,.19,.69,.38,1.04,.55-4.16-.45-8.31-.17-12.5-.07-5.18,.14-10.59,.33-15.7-.7-.53-.11-1.05-.24-1.57-.36Zm6.4,5.58c-1.18-1.07-2.38-2.15-3.62-3.22,4.07,.61,8.25,.59,12.34,.52,4.8-.08,9.65-.58,14.44,.01,1.89,.22,3.75,.6,5.54,1.14,5.76,3.28,11.35,6.93,16.47,11.12,.04,.1,.08,.2,.11,.3,.28,.72,.86,1,1.44,1,1.63,1.4,3.21,2.85,4.73,4.37,1.46,1.46,2.88,2.99,4.23,4.58-5.4-3.33-12.03-5-18.19-6.04-7.15-1.2-14.49-1.48-21.43-3.74-3.42-1.12-6.74-2.64-9.95-4.38-2.03-1.89-4.06-3.78-6.11-5.67Zm10.52,9.79c1.34,.61,2.69,1.16,4.06,1.63,6.95,2.35,14.23,2.77,21.41,3.92,8.83,1.41,19.03,3.95,24.67,11.15,.45,.7,.87,1.39,1.28,2.1,2.56,4.49,4.52,9.32,6.11,14.25-.6-.64-1.24-1.25-1.93-1.82-3.21-2.62-7.02-4.4-10.83-5.94-9.44-3.84-19.58-5.69-28.79-10.05-5.27-5.13-10.6-10.2-15.98-15.25Zm40.29,38c-1.15-.62-2.31-1.24-3.47-1.84-5.68-5.89-11.46-11.71-17.31-17.45,7.65,2.98,15.72,4.78,23.39,7.77,6.49,2.53,13.14,5.8,16.25,12.07,0,0,0,.02,0,.02,.98,3.66,1.82,7.36,2.62,11.06-2.75-2.82-6.55-4.67-10.27-6.24-3.84-1.62-7.55-3.42-11.22-5.39Zm.23,2.03c3.09,1.63,6.18,3.27,9.4,4.62,4.76,1.99,10.27,4.35,12.72,9.06,1.02,4.87,2.05,9.73,3.31,14.53-8.2-9.64-16.69-19.02-25.43-28.2Zm36.17,41.22c-.67-.83-1.34-1.66-2-2.49-1.58-3.95-2.83-7.97-3.9-12.07,2.62,2.52,5.54,4.59,8.63,6.39,.78,3.59,2.28,6.92,3.69,10.31-1.71-.34-3.4-.6-5-1.41-.47-.24-.94-.49-1.41-.74Zm138.16,1.35c-.67,2.12-1.22,4.51-2.03,6.78-.05,.05-.11,.1-.16,.14-.31,.28-.36,.65-.26,.96-.78,1.9-1.8,3.64-3.3,4.97-.18,.16-.27,.35-.3,.53-3.07,.32-6.08,.94-8.78,2.46,.45-1.53,.81-3.11,1.05-4.75,.45-3.03,.75-6.8,2.24-9.7,.56-.24,1.1-.49,1.66-.72,3.66-1.59,7.45-3.03,11.19-4.56-.51,1.3-.91,2.63-1.31,3.89Zm3.02-3.32c.2-.53,.43-1.05,.69-1.57,2.52-1.06,4.98-2.2,7.37-3.46-.93,3.32-2.42,6.45-3.71,9.64-2.55,.74-4.91,2-7.05,3.57,.25-.83,.5-1.66,.76-2.48,.6-1.9,1.19-3.84,1.93-5.7Zm-18.29,12.35c-.43,2.95-.9,5.83-1.95,8.62-1.28,3.4-3.36,6.37-5.77,9.05-3.31,.25-6.59,.83-9.48,2.38,.63-2.26,1.11-4.59,1.52-6.93,.57-3.23,1.19-6.47,2.33-9.55,.47-1.26,1.08-2.65,1.95-3.8,4.16-2.32,8.47-4.42,12.83-6.4-.75,2.12-1.12,4.45-1.43,6.62Zm-.58,19.12c2.14-.1,4.32-.27,6.42-.7-2.03,1.79-4.08,3.58-6.14,5.33-2.14,1.82-4.35,3.58-6.57,5.31-1.98,.58-3.89,1.37-5.83,2.09-2.77,1.01-5.61,1.44-8.52,1.81-.93,.13-1.86,.25-2.78,.41,2.8-3.14,4.66-6.79,5.99-10.7,4.9-3.68,11.62-3.3,17.43-3.55Zm-16.52-8.18c-1.6,8.47-3.28,17.03-10,23.06,0,0,0,0-.02,.01-2.67,.64-5.24,1.55-7.64,2.94,.1-1,.2-1.99,.27-2.98,.46-6.04,.53-12.11,1.38-18.11,1.5-1.5,3.05-2.95,4.65-4.34,4.32-3.75,8.98-7,13.85-9.9-1.36,3.1-2.01,6.75-2.5,9.32Zm-17.58,28.04c4.25-2.77,9.21-3.66,14.16-4.31,2.59-.34,5.13-.75,7.62-1.57,.51-.16,1.02-.35,1.52-.54-2.23,1.73-4.45,3.49-6.61,5.31-8.4,7.09-16.13,14.99-23.01,23.57,1.25-3.29,2.4-6.62,3.4-9.98,1.2-4.05,2.04-8.17,2.59-12.35,.11-.02,.22-.06,.33-.14Zm-2.76,24.22c.15-.32,.1-.62-.06-.83,1.8-2.2,3.64-4.35,5.55-6.46,3.05-3.38,6.26-6.62,9.59-9.73-1.47,4.15-2.01,8.62-3.32,12.85-1.96,6.38-5.23,12.23-8.65,17.93-1.37,1.02-2.77,2.02-4.15,3.02,.76-2.36,.97-4.85,.97-7.36,0-2.98-1.29-6.63,.06-9.41Zm-14.49,2.01c2.12,2.71,4.15,5.5,6.08,8.35,1.94-2.85,3.97-5.63,6.08-8.35-.13,1.95,.3,3.99,.45,5.9,.28,3.59-.11,7.36-1.81,10.57-.05,.1-.08,.19-.09,.28-1.55,1.13-3.1,2.27-4.63,3.45-1.52-1.17-3.07-2.31-4.63-3.45-.01-.08-.04-.18-.09-.28-1.69-3.21-2.08-6.98-1.81-10.57,.15-1.9,.59-3.95,.45-5.9Zm15.78-32.94c-.37,5.83-1.18,11.58-2.73,17.22-1.22,4.48-2.92,8.83-4.53,13.18-.53,1.44-1.12,2.87-1.81,4.24-.21,.29-.42,.58-.63,.86-.21-.28-.41-.57-.63-.86-.68-1.37-1.27-2.8-1.81-4.24-1.61-4.35-3.31-8.7-4.53-13.18-1.55-5.64-2.35-11.4-2.73-17.22-.3-4.75-.45-9.52-.97-14.25,4.03,4.33,7.6,9.06,10.68,14.11,3.07-5.05,6.65-9.77,10.67-14.11-.52,4.73-.67,9.5-.97,14.25Zm-17.95,19.2c1,3.35,2.15,6.69,3.4,9.98-6.88-8.58-14.61-16.47-23-23.57-2.16-1.82-4.38-3.58-6.61-5.31,.5,.19,1,.37,1.52,.54,2.49,.82,5.02,1.23,7.61,1.57,4.95,.65,9.92,1.54,14.17,4.31,.11,.08,.22,.12,.33,.14,.55,4.18,1.38,8.29,2.59,12.35Zm-.16,11.73c1.36,2.78,.07,6.43,.06,9.41,0,2.51,.21,5,.97,7.36-1.39-1-2.78-2-4.15-3.02-3.41-5.7-6.68-11.55-8.65-17.93-1.3-4.23-1.85-8.7-3.31-12.85,3.33,3.12,6.53,6.35,9.59,9.73,1.91,2.11,3.75,4.26,5.55,6.46-.16,.21-.21,.5-.06,.83Zm-30.57-34.13c-2.21-1.73-4.42-3.49-6.56-5.31-2.06-1.76-4.1-3.55-6.15-5.33,2.1,.43,4.28,.6,6.43,.7,5.81,.25,12.52-.13,17.43,3.55,1.33,3.91,3.19,7.57,5.99,10.7-.93-.16-1.85-.28-2.79-.41-2.9-.38-5.75-.8-8.52-1.81-1.94-.72-3.85-1.51-5.84-2.09Zm20.25,4.95s-.02-.01-.02-.01c-6.73-6.03-8.4-14.6-10-23.06-.49-2.57-1.14-6.23-2.5-9.32,4.87,2.91,9.53,6.16,13.85,9.9,1.61,1.4,3.16,2.84,4.66,4.34,.85,6,.92,12.07,1.38,18.11,.08,1,.17,1.99,.27,2.98-2.4-1.4-4.97-2.3-7.64-2.94Zm-11.43-20.9c.41,2.34,.9,4.67,1.52,6.93-2.89-1.55-6.17-2.12-9.48-2.38-2.42-2.68-4.5-5.65-5.78-9.05-1.05-2.8-1.52-5.67-1.95-8.62-.31-2.17-.69-4.5-1.43-6.62,4.35,1.98,8.65,4.07,12.83,6.4,.87,1.14,1.49,2.54,1.95,3.8,1.14,3.08,1.76,6.32,2.34,9.55Zm-16.13-6.31c-2.7-1.52-5.71-2.13-8.78-2.46-.03-.19-.13-.38-.3-.53-1.5-1.33-2.53-3.07-3.3-4.97,.1-.31,.04-.68-.27-.96-.05-.05-.11-.1-.16-.14-.8-2.27-1.36-4.66-2.03-6.78-.39-1.26-.8-2.6-1.31-3.89,3.74,1.53,7.53,2.97,11.2,4.56,.55,.23,1.1,.47,1.65,.72,1.49,2.9,1.79,6.67,2.24,9.7,.25,1.64,.6,3.22,1.06,4.75Zm-15.92-13.46c.26,.82,.51,1.65,.76,2.48-2.14-1.57-4.5-2.83-7.05-3.57-1.29-3.2-2.78-6.32-3.7-9.64,2.38,1.26,4.86,2.4,7.36,3.46,.26,.52,.5,1.05,.7,1.57,.74,1.86,1.32,3.79,1.93,5.7Zm-12.41-.69c1.26,.4,2.55,.62,3.9,.89,3.91,.8,7.31,2.77,10.28,5.38,.7,1.88,1.57,3.67,2.9,5.2-.26-.02-.52-.03-.78-.05-2.94-.2-5.89-.46-8.59-1.4-2.53-3.37-5.1-6.71-7.71-10.01Zm13.09,17.32c-1.2-1.66-2.41-3.32-3.63-4.96,1.8,.4,3.67,.6,5.53,.74,4.74,.35,9.7,.49,13.7,3.39,.17,.12,.35,.17,.52,.17,1.16,2.94,2.76,5.67,4.83,8.2-1.06-.05-2.12-.08-3.15-.11-3.71-.15-7.72-.33-11.13-1.77-2.2-1.91-4.41-3.8-6.66-5.67Zm7.69,10.94c2.33,2.05,4.66,4.09,7.03,6.09,.62,.52,1.24,1.03,1.87,1.55,.85,2.76,1.26,5.61,1.57,8.47-3.38-5.46-6.87-10.83-10.47-16.11Zm12.83,19.97c-.1-.17-.2-.34-.3-.51-.34-3.34-.61-6.7-1.32-9.97,1.92,1.52,3.87,3.02,5.82,4.53,1.03,1.55,1.32,3.85,1.54,5.52,.36,2.71,.4,5.44,.55,8.15,.07,1.12,.16,2.25,.3,3.36-2.17-3.71-4.36-7.41-6.58-11.08Zm11.49,18.99c-.19-.28-.42-.45-.66-.56-.48-.85-.97-1.68-1.45-2.53-1.06-3.5-1.28-7.15-1.43-10.78-.11-2.57-.22-5.19-.77-7.72-.08-.4-.18-.83-.3-1.26,1.68,1.32,3.33,2.66,4.95,4.04,.81,.7,1.62,1.4,2.42,2.12,3.12,5.36,3.35,11.92,5.34,17.72,1.59,4.64,3.8,9,6.22,13.24-5.34-4.16-10.34-8.68-14.32-14.27Zm29.52,53.66c-1.33-2.48-2.63-4.97-3.95-7.45,1.26,1.05,2.58,2.04,3.95,2.97,1.36-.93,2.69-1.92,3.95-2.97-1.31,2.47-2.63,4.97-3.95,7.45Zm6.5-12.25c-1.14,.96-2.17,2.05-3.28,3.07-1,.93-2.1,1.76-3.22,2.55-1.13-.79-2.21-1.62-3.23-2.55-1.1-1.02-2.13-2.11-3.28-3.07-1.04-1.91-2.08-3.8-3.14-5.69,.65,.63,1.29,1.27,1.95,1.8,2.1,1.69,4.41,3.2,6.74,4.57,.32,.19,.64,.37,.96,.55,.32-.18,.65-.36,.96-.55,2.33-1.37,4.63-2.87,6.74-4.57,.66-.53,1.3-1.18,1.95-1.8-1.06,1.89-2.11,3.78-3.15,5.69Zm5.22-9.35c-1.53,.72-2.78,1.93-4.04,3.1-2,1.85-4.33,3.36-6.63,4.8-.35,.22-.7,.43-1.05,.64-.35-.2-.7-.42-1.05-.64-2.3-1.44-4.65-2.95-6.64-4.8-1.26-1.17-2.51-2.38-4.04-3.1-1.16-2.04-2.32-4.09-3.47-6.14,4.57,4.3,9.76,7.92,15.2,11.14,5.45-3.21,10.63-6.84,15.2-11.14-1.15,2.05-2.31,4.1-3.48,6.14Zm7.08-12.53c-5.26,6.26-11.8,11.25-18.81,15.46-7.01-4.22-13.55-9.2-18.8-15.46-1.43-2.53-2.85-5.07-4.29-7.6,7.2,6.42,15.55,11.61,23.09,17.65,7.54-6.04,15.9-11.23,23.09-17.65-1.43,2.53-2.86,5.07-4.28,7.6Zm15.02-41.12c-.53,2.53-.66,5.14-.77,7.72-.15,3.64-.36,7.29-1.43,10.78-.48,.84-.97,1.68-1.45,2.53-.24,.1-.47,.28-.66,.56-3.98,5.6-8.98,10.12-14.32,14.27,2.42-4.24,4.63-8.6,6.22-13.24,1.99-5.8,2.22-12.36,5.34-17.72,.8-.72,1.61-1.42,2.42-2.12,1.62-1.38,3.28-2.72,4.94-4.04-.11,.42-.2,.85-.29,1.26Zm7.49,2.08c-.1,.17-.21,.34-.31,.51-2.22,3.68-4.41,7.37-6.58,11.08,.13-1.11,.23-2.24,.29-3.36,.16-2.72,.19-5.44,.55-8.15,.22-1.66,.5-3.96,1.54-5.52,1.94-1.51,3.89-3.01,5.82-4.53-.72,3.27-.98,6.63-1.32,9.97Zm2.05-3.35c.31-2.86,.72-5.71,1.57-8.47,.63-.52,1.25-1.02,1.87-1.55,2.37-2,4.7-4.04,7.04-6.09-3.6,5.28-7.09,10.65-10.48,16.11Zm18.15-27.05c-2.25,1.86-4.46,3.76-6.65,5.67-3.41,1.43-7.42,1.62-11.14,1.77-1.03,.03-2.08,.07-3.15,.11,2.07-2.53,3.68-5.26,4.83-8.2,.17,0,.34-.05,.51-.17,4-2.9,8.97-3.04,13.7-3.39,1.87-.13,3.73-.34,5.53-.74-1.22,1.64-2.43,3.3-3.64,4.96Zm5.39-7.31c-2.7,.94-5.65,1.2-8.59,1.4-.26,.03-.52,.04-.78,.05,1.32-1.53,2.19-3.32,2.89-5.2,2.97-2.6,6.37-4.57,10.28-5.38,1.35-.28,2.64-.49,3.91-.89-2.61,3.3-5.18,6.65-7.71,10.01Zm12.14-15.55c-.67,.83-1.34,1.65-2,2.49-.47,.25-.94,.5-1.42,.74-1.59,.81-3.28,1.08-5,1.41,1.41-3.39,2.92-6.73,3.69-10.31,3.1-1.8,6.01-3.87,8.63-6.39-1.07,4.09-2.32,8.12-3.9,12.07Zm6.26-23.71c-2.77,5.46-7.07,9.69-12.22,12.94-5.26,3.32-11.21,5.33-16.93,7.69-12.35,5.08-24.65,10.61-35.54,18.45-7.93,5.71-14.87,12.67-20.61,20.52-5.75-7.85-12.69-14.81-20.6-20.52-10.89-7.85-23.19-13.37-35.55-18.45-5.73-2.36-11.66-4.38-16.93-7.69-5.15-3.25-9.45-7.48-12.22-12.94-.13-.26-.3-.5-.49-.71-1.06-4.97-2.08-9.95-3.34-14.87-.08-.35-.17-.7-.27-1.04,1.27,1.12,2.65,2.15,4.11,3.06,4.63,2.9,9.6,5.28,14.57,7.54,5.83,2.65,11.76,5.14,17.42,8.15,5.01,2.67,9.83,5.75,14.49,9,11.35,7.94,21.82,17.36,29.86,28.71,3.36,4.73,6.25,9.8,8.94,14.95,2.69-5.15,5.58-10.22,8.94-14.95,8.05-11.35,18.51-20.77,29.86-28.71,4.65-3.25,9.47-6.34,14.5-9,5.66-3.02,11.58-5.5,17.41-8.15,4.97-2.26,9.95-4.64,14.58-7.54,1.45-.91,2.83-1.94,4.1-3.06-.09,.35-.18,.69-.27,1.04-1.25,4.91-2.28,9.9-3.33,14.87-.19,.21-.36,.45-.49,.71Zm2.48,13.18c1.27-4.8,2.29-9.66,3.32-14.53,2.45-4.71,7.96-7.07,12.71-9.06,3.22-1.35,6.31-2.98,9.4-4.62-8.74,9.18-17.23,18.56-25.43,28.2Zm29.14-32.07c-1.16,.6-2.32,1.22-3.47,1.84-3.68,1.96-7.37,3.76-11.22,5.39-3.72,1.57-7.51,3.42-10.26,6.24,.8-3.7,1.64-7.4,2.62-11.06,0,0,0-.02,0-.02,3.11-6.27,9.76-9.54,16.25-12.07,7.67-2.99,15.75-4.78,23.39-7.77-5.85,5.75-11.63,11.57-17.31,17.45Zm20.84-20.91c-9.21,4.36-19.36,6.21-28.79,10.05-3.82,1.55-7.62,3.33-10.84,5.94-.7,.56-1.33,1.18-1.92,1.82,1.58-4.93,3.54-9.76,6.11-14.25,.4-.71,.83-1.4,1.27-2.1,5.65-7.21,15.85-9.74,24.67-11.15,7.2-1.15,14.47-1.57,21.42-3.92,1.37-.47,2.72-1.02,4.05-1.63-5.37,5.04-10.7,10.12-15.97,15.25Zm26.5-25.04c-2.04,1.89-4.08,3.78-6.11,5.67-3.22,1.74-6.54,3.26-9.96,4.38-6.93,2.26-14.27,2.54-21.41,3.74-6.16,1.04-12.79,2.71-18.19,6.04,1.35-1.59,2.78-3.12,4.23-4.58,1.51-1.52,3.1-2.97,4.73-4.37,.58,0,1.15-.28,1.43-1,.05-.1,.08-.19,.12-.3,5.12-4.19,10.71-7.83,16.47-11.12,1.8-.54,3.65-.92,5.54-1.14,4.79-.59,9.63-.09,14.44-.01,4.08,.08,8.27,.09,12.33-.52-1.23,1.07-2.45,2.15-3.62,3.22Zm6.4-5.58c-.52,.13-1.04,.25-1.56,.36-5.12,1.03-10.52,.84-15.7,.7-4.19-.1-8.34-.38-12.5,.07,.34-.17,.69-.36,1.03-.55,10.51-5.43,21.49-9.89,32.5-14.18,6.24-2.43,12.58-4.75,18.61-7.63,.08,.1,.16,.19,.24,.29-6.37,7.75-14.8,14.34-22.62,20.94Z"/><path class="cls-1" d="M76.48,235.41h0Z"/><path class="cls-1" d="M323.82,235.42s0,0-.01,0h0s0,0,.01,0Z"/></svg>